
<?xml version="1.0" encoding="UTF-8"?>
<svg id="Layer_1" xmlns="http://www.w3.org/2000/svg" version="1.1" viewBox="0 0 400 900">
  <!-- Generator: Adobe Illustrator 29.4.0, SVG Export Plug-In . SVG Version: 2.1.0 Build 152)  -->
  <defs>
    <style>
      .st0 {
        font-size: 12px;
      }

      .st0, .st1 {
        font-family: Arial-BoldMT, Arial;
        font-weight: 700;
      }

      .st0, .st1, .st2, .st3 {
        fill: #008bd2;
      }

      .st0, .st1, .st4 {
        isolation: isolate;
      }

      .st1 {
        font-size: 10px;
      }

      .st5 {
        fill: none;
        stroke: #008bd2;
        stroke-width: 1.89px;
      }

      .st5, .st2 {
        stroke-miterlimit: 10;
      }

      .st2, .st6 {
        stroke: #fff;
      }

      .st6 {
        fill: #0075be;
        stroke-width: 1.7px;
      }
    </style>
  </defs>
  <polyline class="st5" points="255.23 10.33 208.27 27.1 194.01 58.13 206.17 84.13 164.24 100.9 153.34 75.32 192.34 58.55"/>
  <polyline class="st5" points="212.46 886.7 184.37 827.58 178.5 821.29 179.34 149.54 164.24 100.9"/>
  <g id="stops">
    <g id="stop-riverfront">
      <circle class="st6" cx="254.61" cy="11.38" r="5.38"/>
      <text class="st0" transform="translate(241.34 30.84)"><tspan x="0" y="0">Riverfront</tspan></text>
    </g>
    <g id="stop-river-market">
      <circle class="st6" cx="193.11" cy="56.7" r="5.38"/>
      <g class="st4">
        <text class="st0" transform="translate(153.15 38)"><tspan x="0" y="0">River</tspan></text>
        <text class="st0" transform="translate(145.66 50.26)"><tspan x="0" y="0">Market</tspan></text>
      </g>
    </g>
    <g id="stop-delaware">
      <circle class="st6" cx="159" cy="88.53" r="5.38"/>
      <text class="st0" transform="translate(95.07 91.78)"><tspan x="0" y="0">Delaware</tspan></text>
    </g>
    <g id="stop-city-market">
      <circle class="st6" cx="185.84" cy="93.67" r="5.38"/>
      <g class="st4">
        <g class="st4">
          <path class="st3" d="M205.7,101.06l1.68.53c-.26.94-.69,1.63-1.29,2.09s-1.36.68-2.28.68c-1.14,0-2.08-.39-2.81-1.17s-1.1-1.84-1.1-3.2c0-1.43.37-2.54,1.11-3.33s1.71-1.19,2.91-1.19c1.05,0,1.9.31,2.56.93.39.37.68.89.88,1.58l-1.72.41c-.1-.45-.31-.8-.64-1.05s-.71-.39-1.17-.39c-.64,0-1.15.23-1.55.69s-.59,1.2-.59,2.22c0,1.09.2,1.86.59,2.32s.9.69,1.52.69c.46,0,.86-.15,1.19-.44s.57-.75.71-1.38Z"/>
          <path class="st3" d="M208.86,97.15v-1.52h1.65v1.52h-1.65ZM208.86,104.22v-6.22h1.65v6.22h-1.65Z"/>
          <path class="st3" d="M215.05,97.99v1.31h-1.12v2.51c0,.51.01.8.03.89s.07.15.15.21.17.08.28.08c.15,0,.37-.05.66-.16l.14,1.28c-.38.16-.82.25-1.3.25-.3,0-.56-.05-.8-.15s-.41-.23-.52-.39-.19-.37-.23-.64c-.04-.19-.05-.58-.05-1.16v-2.71h-.76v-1.31h.76v-1.24l1.65-.96v2.2h1.12Z"/>
          <path class="st3" d="M215.41,97.99h1.75l1.49,4.42,1.45-4.42h1.71l-2.2,5.99-.39,1.08c-.14.36-.28.64-.41.83s-.28.35-.45.47-.38.21-.63.28-.53.1-.84.1-.63-.03-.93-.1l-.15-1.29c.26.05.49.08.7.08.38,0,.67-.11.85-.34s.32-.51.42-.86l-2.37-6.24Z"/>
          <path class="st3" d="M200.18,118.62v-8.59h2.6l1.56,5.86,1.54-5.86h2.6v8.59h-1.61v-6.76l-1.71,6.76h-1.67l-1.7-6.76v6.76h-1.61Z"/>
          <path class="st3" d="M211.42,114.29l-1.49-.27c.17-.6.46-1.05.87-1.34s1.02-.43,1.83-.43c.73,0,1.28.09,1.64.26s.61.39.76.66.22.76.22,1.47l-.02,1.92c0,.55.03.95.08,1.21s.15.54.3.83h-1.63c-.04-.11-.1-.27-.16-.49-.03-.1-.05-.16-.06-.19-.28.27-.58.48-.9.62s-.66.21-1.03.21c-.64,0-1.15-.17-1.51-.52s-.55-.79-.55-1.32c0-.35.08-.67.25-.94s.4-.49.71-.63.74-.27,1.31-.38c.77-.14,1.3-.28,1.6-.4v-.16c0-.32-.08-.54-.23-.68s-.45-.2-.88-.2c-.29,0-.52.06-.69.17s-.3.32-.4.61ZM213.63,115.63c-.21.07-.54.15-1,.25s-.76.19-.9.29c-.21.15-.32.35-.32.58s.09.43.26.6.39.25.66.25c.3,0,.58-.1.85-.29.2-.15.33-.33.39-.54.04-.14.06-.41.06-.8v-.33Z"/>
          <path class="st3" d="M218.44,118.62h-1.65v-6.22h1.53v.88c.26-.42.5-.69.71-.83s.45-.2.71-.2c.38,0,.74.1,1.08.31l-.51,1.44c-.28-.18-.54-.27-.77-.27s-.43.06-.59.19-.29.36-.38.69-.14,1.03-.14,2.09v1.92Z"/>
          <path class="st3" d="M221.48,118.62v-8.59h1.65v4.56l1.93-2.19h2.03l-2.13,2.27,2.28,3.95h-1.78l-1.56-2.79-.77.8v1.99h-1.65Z"/>
          <path class="st3" d="M231.81,116.64l1.64.28c-.21.6-.54,1.06-1,1.37s-1.02.47-1.71.47c-1.08,0-1.88-.35-2.4-1.06-.41-.57-.62-1.28-.62-2.14,0-1.03.27-1.84.81-2.42s1.22-.88,2.04-.88c.93,0,1.66.31,2.19.92s.79,1.55.77,2.81h-4.12c.01.49.14.87.4,1.14s.57.41.95.41c.26,0,.47-.07.65-.21s.31-.37.4-.68ZM231.91,114.97c-.01-.48-.13-.84-.37-1.09s-.52-.37-.86-.37c-.36,0-.66.13-.89.39s-.35.62-.35,1.07h2.46Z"/>
          <path class="st3" d="M237.74,112.39v1.31h-1.12v2.51c0,.51.01.8.03.89s.07.15.15.21.17.08.28.08c.15,0,.37-.05.66-.16l.14,1.28c-.38.16-.82.25-1.3.25-.3,0-.56-.05-.8-.15s-.41-.23-.52-.39-.19-.37-.23-.64c-.04-.19-.05-.58-.05-1.16v-2.71h-.76v-1.31h.76v-1.24l1.65-.96v2.2h1.12Z"/>
        </g>
      </g>
    </g>
    <g id="stop-north-loop">
      <circle class="st6" cx="179.13" cy="150.07" r="5.38"/>
      <text class="st0" transform="translate(189.51 155.73)"><tspan x="0" y="0">North Loop</tspan></text>
    </g>
    <g id="stop-library">
      <circle class="st6" cx="179.13" cy="183.09" r="5.38"/>
      <text class="st0" transform="translate(189.51 187.8)"><tspan x="0" y="0">Library</tspan></text>
    </g>
    <g id="stop-metro-center">
      <circle class="st6" cx="179.13" cy="226.49" r="5.38"/>
      <g class="st4">
        <text class="st0" transform="translate(189.51 232.15)"><tspan x="0" y="0">Metro</tspan></text>
        <text class="st0" transform="translate(189.51 244.41)"><tspan x="0" y="0">Center</tspan></text>
      </g>
    </g>
    <g id="stop-power--light">
      <circle class="st6" cx="179.13" cy="272.72" r="5.38"/>
      <text class="st0" transform="translate(189.51 278.38)"><tspan x="0" y="0">Power &amp; Light</tspan></text>
    </g>
    <g id="stop-kauffman-center">
      <circle class="st6" cx="179.13" cy="312.34" r="5.38"/>
      <g class="st4">
        <text class="st0" transform="translate(189.51 318)"><tspan x="0" y="0">Kauffman</tspan></text>
        <text class="st0" transform="translate(189.51 330.27)"><tspan x="0" y="0">Center</tspan></text>
      </g>
    </g>
    <g id="stop-crossroads">
      <circle class="st6" cx="179.13" cy="359.51" r="5.38"/>
      <text class="st0" transform="translate(189.51 365.18)"><tspan x="0" y="0">Crossroads</tspan></text>
    </g>
    <g id="stop-union-station">
      <circle class="st6" cx="179.13" cy="440.65" r="5.38"/>
      <text class="st0" transform="translate(189.51 446.31)"><tspan x="0" y="0">Union Station</tspan></text>
    </g>
    <g id="stop-wwi-museum--memorial">
      <circle class="st6" cx="179.13" cy="491.6" r="5.38"/>
      <g class="st4">
        <text class="st0" transform="translate(189.51 499.15)"><tspan x="0" y="0">WWI Museum</tspan></text>
        <text class="st0" transform="translate(189.51 511.41)"><tspan x="0" y="0">&amp; Memorial</tspan></text>
      </g>
    </g>
    <g id="stop-union-hill">
      <circle class="st6" cx="179.13" cy="557.64" r="5.38"/>
      <g class="st4">
        <text class="st0" transform="translate(189.51 563.3)"><tspan x="0" y="0">Union</tspan></text>
        <text class="st0" transform="translate(189.51 575.57)"><tspan x="0" y="0">Hill</tspan></text>
      </g>
    </g>
    <g id="stop-armour">
      <circle class="st6" cx="179.13" cy="623.68" r="5.38"/>
      <text class="st0" transform="translate(189.51 629.34)"><tspan x="0" y="0">Armour</tspan></text>
    </g>
    <g id="stop-westport">
      <circle class="st6" cx="179.13" cy="697.27" r="5.38"/>
      <text class="st0" transform="translate(189.51 702.93)"><tspan x="0" y="0">Westport</tspan></text>
    </g>
    <g id="stop-southmoreland">
      <circle class="st6" cx="179.13" cy="754.82" r="5.38"/>
      <text class="st0" transform="translate(189.51 760.49)"><tspan x="0" y="0">Southmoreland</tspan></text>
    </g>
    <g id="stop-art-museums">
      <circle class="st6" cx="179.13" cy="789.73" r="5.38"/>
      <text class="st0" transform="translate(189.51 795.39)"><tspan x="0" y="0">Art Museums</tspan></text>
    </g>
    <g id="stop-plaza">
      <circle class="st6" cx="184.79" cy="827.47" r="5.38"/>
      <text class="st0" transform="translate(195.17 833.13)"><tspan x="0" y="0">Plaza</tspan></text>
    </g>
    <g id="stop-umkc">
      <circle class="st6" cx="213.09" cy="887.43" r="5.38"/>
      <text class="st0" transform="translate(223.47 893.09)"><tspan x="0" y="0">UMKC</tspan></text>
    </g>
  </g>
  <g>
    <text class="st1" transform="translate(208.59 380.49)"><tspan x="0" y="0">The Abbott</tspan></text>
    <polygon class="st2" points="198.58 368.94 200.57 375.07 207.02 375.07 201.81 378.87 203.8 385 198.58 381.21 193.36 385 195.36 378.87 190.14 375.07 196.59 375.07 198.58 368.94"/>
  </g>
  <g>
    <text class="st1" transform="translate(208.6 396.45)"><tspan x="0" y="0">Hotel Indigo</tspan></text>
    <polygon class="st2" points="198.76 385.09 200.72 391.12 207.06 391.12 201.93 394.85 203.89 400.88 198.76 397.16 193.63 400.88 195.59 394.85 190.46 391.12 196.8 391.12 198.76 385.09"/>
  </g>
</svg>
