<?xml version="1.0" encoding="UTF-8"?><svg id="Layer_1" xmlns="http://www.w3.org/2000/svg" viewBox="0 0 187.85 891.85"><defs><style>.cls-1{fill:none;stroke:#008bd2;stroke-width:1.89px;}.cls-1,.cls-2,.cls-3{stroke-miterlimit:10;}.cls-2{stroke-width:1.85px;}.cls-2,.cls-4,.cls-3{fill:#008bd2;}.cls-2,.cls-3,.cls-5{stroke:#fff;}.cls-6{isolation:isolate;}.cls-3{stroke-width:1.82px;}.cls-5{fill:#0075be;stroke-width:1.7px;}</style></defs><polyline class="cls-1" points="151.16 5.18 104.2 21.95 89.94 52.98 102.1 78.98 60.17 95.75 49.27 70.17 88.27 53.4"/><polyline class="cls-1" points="108.39 881.55 80.3 822.42 74.43 816.13 75.27 144.39 60.17 95.75"/><g id="stops"><g id="stop-riverfront"><circle class="cls-5" cx="150.53" cy="6.23" r="5.38"/><g class="cls-6"><path class="cls-4" d="M139.02,20.69v-7.43h3.16c.79,0,1.37.07,1.73.2.36.13.65.37.86.71.22.34.32.73.32,1.17,0,.56-.16,1.02-.49,1.38-.33.36-.82.59-1.47.69.32.19.59.4.8.62s.5.63.85,1.21l.91,1.45h-1.79l-1.08-1.62c-.38-.58-.65-.94-.79-1.09-.14-.15-.29-.25-.45-.31-.16-.06-.41-.08-.75-.08h-.3v3.1h-1.5ZM140.52,16.41h1.11c.72,0,1.17-.03,1.35-.09.18-.06.32-.17.42-.31.1-.15.15-.33.15-.56,0-.25-.07-.45-.2-.61-.13-.15-.32-.25-.56-.29-.12-.02-.49-.02-1.09-.02h-1.17v1.88Z"/><path class="cls-4" d="M146.5,14.58v-1.32h1.42v1.32h-1.42ZM146.5,20.69v-5.38h1.42v5.38h-1.42Z"/><path class="cls-4" d="M150.87,20.69l-2.17-5.38h1.5l1.01,2.75.29.92c.08-.23.13-.39.15-.46.05-.15.1-.3.15-.46l1.02-2.75h1.46l-2.14,5.38h-1.28Z"/><path class="cls-4" d="M158.28,18.98l1.42.24c-.18.52-.47.92-.86,1.19s-.89.41-1.48.41c-.94,0-1.63-.31-2.08-.92-.35-.49-.53-1.11-.53-1.85,0-.89.23-1.59.7-2.1.47-.5,1.06-.76,1.77-.76.8,0,1.43.26,1.9.79.46.53.68,1.34.66,2.43h-3.57c0,.42.12.75.34.99.22.23.49.35.82.35.22,0,.41-.06.56-.18.15-.12.27-.32.34-.59ZM158.36,17.54c0-.41-.12-.73-.32-.94-.2-.21-.45-.32-.74-.32-.31,0-.57.11-.77.34-.2.23-.3.53-.3.92h2.13Z"/><path class="cls-4" d="M162.29,20.69h-1.42v-5.38h1.32v.77c.23-.36.43-.6.61-.71.18-.11.39-.17.62-.17.32,0,.64.09.94.27l-.44,1.24c-.24-.16-.46-.23-.67-.23s-.37.05-.51.16-.25.31-.33.6c-.08.29-.12.89-.12,1.8v1.66Z"/><path class="cls-4" d="M164.35,15.31h.79v-.41c0-.45.05-.79.14-1.01.1-.22.27-.4.53-.54.26-.14.58-.21.98-.21s.8.06,1.19.18l-.19.99c-.23-.05-.44-.08-.65-.08s-.35.05-.44.14c-.09.1-.13.28-.13.55v.38h1.06v1.12h-1.06v4.26h-1.42v-4.26h-.79v-1.12Z"/><path class="cls-4" d="M169.79,20.69h-1.42v-5.38h1.32v.77c.23-.36.43-.6.61-.71.18-.11.39-.17.62-.17.32,0,.64.09.94.27l-.44,1.24c-.24-.16-.46-.23-.67-.23s-.37.05-.51.16-.25.31-.33.6c-.08.29-.12.89-.12,1.8v1.66Z"/><path class="cls-4" d="M172.14,17.93c0-.47.12-.93.35-1.37.23-.44.56-.78.99-1.01.43-.23.9-.35,1.43-.35.81,0,1.48.26,2,.79.52.53.78,1.2.78,2s-.26,1.49-.79,2.02c-.53.54-1.19.8-1.98.8-.49,0-.96-.11-1.41-.33s-.79-.55-1.02-.98c-.23-.43-.35-.96-.35-1.57ZM173.59,18c0,.53.13.94.38,1.23.25.28.57.43.94.43s.68-.14.93-.43c.25-.28.38-.7.38-1.24s-.13-.93-.38-1.22c-.25-.28-.56-.43-.93-.43s-.68.14-.94.43c-.25.28-.38.69-.38,1.23Z"/><path class="cls-4" d="M183.7,20.69h-1.42v-2.75c0-.58-.03-.96-.09-1.13s-.16-.3-.3-.4c-.14-.09-.3-.14-.49-.14-.25,0-.47.07-.66.2-.2.14-.33.31-.4.54s-.11.64-.11,1.24v2.44h-1.42v-5.38h1.32v.79c.47-.61,1.06-.91,1.77-.91.31,0,.6.06.86.17s.46.26.59.43c.13.18.23.38.28.6s.08.54.08.96v3.34Z"/><path class="cls-4" d="M187.61,15.31v1.13h-.97v2.17c0,.44,0,.7.03.77.02.07.06.13.13.18.07.05.15.07.24.07.13,0,.32-.05.57-.14l.12,1.1c-.33.14-.71.21-1.12.21-.26,0-.49-.04-.69-.13-.21-.09-.36-.2-.45-.33-.1-.14-.16-.32-.2-.55-.03-.17-.05-.5-.05-1v-2.35h-.65v-1.13h.65v-1.07l1.43-.83v1.9h.97Z"/></g></g><g id="stop-river-market"><circle class="cls-5" cx="89.03" cy="51.55" r="5.38"/><g class="cls-6"><g class="cls-6"><path class="cls-4" d="M53.84,34.85v-7.43h3.16c.79,0,1.37.07,1.73.2.36.13.65.37.86.71.22.34.32.73.32,1.17,0,.56-.16,1.02-.49,1.38-.33.36-.82.59-1.47.69.32.19.59.4.8.62.21.23.5.63.85,1.21l.91,1.45h-1.79l-1.08-1.62c-.38-.58-.65-.94-.79-1.09-.14-.15-.29-.25-.45-.31-.16-.06-.41-.08-.76-.08h-.3v3.1h-1.5ZM55.34,30.56h1.11c.72,0,1.17-.03,1.35-.09.18-.06.32-.17.42-.31.1-.15.15-.33.15-.56,0-.25-.07-.45-.2-.61-.13-.15-.32-.25-.56-.29-.12-.02-.49-.02-1.09-.02h-1.17v1.88Z"/><path class="cls-4" d="M61.32,28.73v-1.32h1.42v1.32h-1.42ZM61.32,34.85v-5.38h1.42v5.38h-1.42Z"/><path class="cls-4" d="M65.68,34.85l-2.17-5.38h1.5l1.01,2.75.29.92c.08-.23.13-.39.15-.46.05-.15.1-.3.15-.46l1.02-2.75h1.46l-2.14,5.38h-1.28Z"/><path class="cls-4" d="M73.09,33.13l1.42.24c-.18.52-.47.92-.86,1.19s-.89.41-1.48.41c-.94,0-1.63-.31-2.08-.92-.35-.49-.53-1.11-.53-1.85,0-.89.23-1.59.7-2.1s1.06-.76,1.77-.76c.8,0,1.43.26,1.9.79.46.53.68,1.34.66,2.43h-3.57c.01.42.12.75.34.99.22.23.49.35.82.35.22,0,.41-.06.56-.18.15-.12.27-.32.34-.59ZM73.17,31.69c-.01-.41-.12-.73-.32-.94-.2-.21-.45-.32-.74-.32-.31,0-.57.11-.77.34-.2.23-.3.53-.3.92h2.13Z"/><path class="cls-4" d="M77.11,34.85h-1.42v-5.38h1.32v.77c.23-.36.43-.6.61-.71.18-.11.39-.17.62-.17.32,0,.64.09.94.27l-.44,1.24c-.24-.16-.46-.23-.67-.23s-.37.05-.51.16c-.14.11-.25.31-.33.6-.08.29-.12.89-.12,1.8v1.66Z"/></g><g class="cls-6"><path class="cls-4" d="M46.32,47.11v-7.43h2.24l1.35,5.07,1.33-5.07h2.25v7.43h-1.39v-5.85l-1.47,5.85h-1.44l-1.47-5.85v5.85h-1.39Z"/><path class="cls-4" d="M56.04,43.37l-1.29-.23c.15-.52.4-.91.75-1.16.35-.25.88-.38,1.58-.38.64,0,1.11.08,1.42.23.31.15.53.34.66.57.13.23.19.66.19,1.27l-.02,1.66c0,.47.02.82.07,1.05.05.22.13.47.26.72h-1.41c-.04-.09-.08-.23-.14-.42-.02-.08-.04-.14-.05-.17-.24.24-.5.41-.78.53s-.57.18-.89.18c-.55,0-.99-.15-1.31-.45-.32-.3-.48-.68-.48-1.14,0-.3.07-.58.22-.81.15-.24.35-.42.61-.55.26-.13.64-.24,1.13-.33.67-.12,1.13-.24,1.38-.35v-.14c0-.27-.07-.47-.2-.58-.14-.12-.39-.17-.77-.17-.25,0-.45.05-.59.15-.14.1-.26.27-.34.52ZM57.95,44.53c-.18.06-.47.13-.87.22-.4.08-.65.17-.77.25-.19.13-.28.3-.28.5s.07.37.22.52c.15.15.34.22.57.22.26,0,.5-.08.73-.25.17-.13.29-.29.34-.47.04-.12.06-.35.06-.69v-.28Z"/><path class="cls-4" d="M62.11,47.11h-1.42v-5.38h1.32v.77c.23-.36.43-.6.61-.71.18-.11.39-.17.62-.17.32,0,.64.09.94.27l-.44,1.24c-.24-.16-.46-.23-.67-.23s-.37.05-.51.16c-.14.11-.25.31-.33.6-.08.29-.12.89-.12,1.8v1.66Z"/><path class="cls-4" d="M64.74,47.11v-7.43h1.42v3.94l1.67-1.9h1.75l-1.84,1.97,1.97,3.42h-1.54l-1.35-2.42-.66.69v1.72h-1.42Z"/><path class="cls-4" d="M73.67,45.4l1.42.24c-.18.52-.47.92-.86,1.19s-.89.41-1.48.41c-.94,0-1.63-.31-2.08-.92-.35-.49-.53-1.11-.53-1.85,0-.89.23-1.59.7-2.1s1.06-.76,1.77-.76c.8,0,1.43.26,1.9.79.46.53.68,1.34.66,2.43h-3.57c.01.42.12.75.34.99.22.23.49.35.82.35.22,0,.41-.06.56-.18.15-.12.27-.32.34-.59ZM73.76,43.96c-.01-.41-.12-.73-.32-.94-.2-.21-.45-.32-.74-.32-.31,0-.57.11-.77.34-.2.23-.3.53-.3.92h2.13Z"/><path class="cls-4" d="M78.8,41.73v1.13h-.97v2.17c0,.44,0,.7.03.77.02.07.06.13.13.18s.15.07.24.07c.13,0,.32-.05.57-.14l.12,1.1c-.33.14-.71.21-1.12.21-.26,0-.49-.04-.69-.13-.21-.09-.36-.2-.45-.33-.1-.14-.16-.32-.2-.55-.03-.17-.05-.5-.05-1v-2.35h-.65v-1.13h.65v-1.07l1.43-.83v1.9h.97Z"/></g></g></g><g id="stop-delaware"><circle class="cls-5" cx="54.93" cy="83.38" r="5.38"/><g class="cls-6"><path class="cls-4" d="M.75,79.2h2.74c.62,0,1.09.05,1.41.14.44.13.81.36,1.12.68.31.33.55.73.71,1.2.16.47.24,1.06.24,1.76,0,.61-.08,1.14-.23,1.58-.19.54-.45.98-.8,1.31-.26.25-.61.45-1.05.59-.33.1-.77.16-1.33.16H.75v-7.43ZM2.25,80.46v4.92h1.12c.42,0,.72-.02.91-.07.24-.06.45-.16.61-.31.16-.15.29-.38.39-.72.1-.33.15-.79.15-1.36s-.05-1.02-.15-1.32c-.1-.31-.24-.55-.43-.72-.18-.17-.41-.29-.69-.35-.21-.05-.62-.07-1.23-.07h-.67Z"/><path class="cls-4" d="M11.36,84.92l1.42.24c-.18.52-.47.92-.86,1.19s-.89.41-1.48.41c-.94,0-1.63-.31-2.08-.92-.35-.49-.53-1.11-.53-1.85,0-.89.23-1.59.7-2.1s1.06-.76,1.77-.76c.8,0,1.43.26,1.9.79.46.53.68,1.34.66,2.43h-3.57c.01.42.12.75.34.99.22.23.49.35.82.35.22,0,.41-.06.56-.18.15-.12.27-.32.34-.59ZM11.44,83.48c-.01-.41-.12-.73-.32-.94-.2-.21-.45-.32-.74-.32-.31,0-.57.11-.77.34-.2.23-.3.53-.3.92h2.13Z"/><path class="cls-4" d="M14.01,86.63v-7.43h1.42v7.43h-1.42Z"/><path class="cls-4" d="M17.96,82.89l-1.29-.23c.15-.52.4-.91.75-1.16.35-.25.88-.38,1.58-.38.64,0,1.11.08,1.42.23.31.15.53.34.66.57.13.23.19.66.19,1.27l-.02,1.66c0,.47.02.82.07,1.05.05.22.13.47.26.72h-1.41c-.04-.09-.08-.23-.14-.42-.02-.08-.04-.14-.05-.17-.24.24-.5.41-.78.53s-.57.18-.89.18c-.55,0-.99-.15-1.31-.45-.32-.3-.48-.68-.48-1.14,0-.3.07-.58.22-.81.15-.24.35-.42.61-.55.26-.13.64-.24,1.13-.33.67-.12,1.13-.24,1.38-.35v-.14c0-.27-.07-.47-.2-.58-.14-.12-.39-.17-.77-.17-.25,0-.45.05-.59.15-.14.1-.26.27-.34.52ZM19.86,84.05c-.18.06-.47.13-.87.22-.4.08-.65.17-.77.25-.19.13-.28.3-.28.5s.07.37.22.52c.15.15.34.22.57.22.26,0,.5-.08.73-.25.17-.13.29-.29.34-.47.04-.12.06-.35.06-.69v-.28Z"/><path class="cls-4" d="M23.67,86.63l-1.7-5.38h1.38l1.01,3.53.93-3.53h1.37l.9,3.53,1.03-3.53h1.4l-1.73,5.38h-1.37l-.93-3.46-.91,3.46h-1.38Z"/><path class="cls-4" d="M31.8,82.89l-1.29-.23c.15-.52.4-.91.75-1.16.35-.25.88-.38,1.58-.38.64,0,1.11.08,1.42.23.31.15.53.34.66.57.13.23.19.66.19,1.27l-.02,1.66c0,.47.02.82.07,1.05.05.22.13.47.26.72h-1.41c-.04-.09-.08-.23-.14-.42-.02-.08-.04-.14-.05-.17-.24.24-.5.41-.78.53s-.57.18-.89.18c-.55,0-.99-.15-1.31-.45-.32-.3-.48-.68-.48-1.14,0-.3.07-.58.22-.81.15-.24.35-.42.61-.55.26-.13.64-.24,1.13-.33.67-.12,1.13-.24,1.38-.35v-.14c0-.27-.07-.47-.2-.58-.14-.12-.39-.17-.77-.17-.25,0-.45.05-.59.15-.14.1-.26.27-.34.52ZM33.71,84.05c-.18.06-.47.13-.87.22-.4.08-.65.17-.77.25-.19.13-.28.3-.28.5s.07.37.22.52c.15.15.34.22.57.22.26,0,.5-.08.73-.25.17-.13.29-.29.34-.47.04-.12.06-.35.06-.69v-.28Z"/><path class="cls-4" d="M37.87,86.63h-1.42v-5.38h1.32v.77c.23-.36.43-.6.61-.71.18-.11.39-.17.62-.17.32,0,.64.09.94.27l-.44,1.24c-.24-.16-.46-.23-.67-.23s-.37.05-.51.16c-.14.11-.25.31-.33.6-.08.29-.12.89-.12,1.8v1.66Z"/><path class="cls-4" d="M43.67,84.92l1.42.24c-.18.52-.47.92-.86,1.19s-.89.41-1.48.41c-.94,0-1.63-.31-2.08-.92-.35-.49-.53-1.11-.53-1.85,0-.89.23-1.59.7-2.1s1.06-.76,1.77-.76c.8,0,1.43.26,1.9.79.46.53.68,1.34.66,2.43h-3.57c.01.42.12.75.34.99.22.23.49.35.82.35.22,0,.41-.06.56-.18.15-.12.27-.32.34-.59ZM43.75,83.48c-.01-.41-.12-.73-.32-.94-.2-.21-.45-.32-.74-.32-.31,0-.57.11-.77.34-.2.23-.3.53-.3.92h2.13Z"/></g></g><g id="stop-city-market"><circle class="cls-5" cx="81.77" cy="88.52" r="5.38"/><g class="cls-6"><g class="cls-6"><path class="cls-4" d="M98.77,93.33l1.46.46c-.22.81-.59,1.41-1.11,1.81s-1.18.59-1.97.59c-.99,0-1.8-.34-2.43-1.01-.64-.67-.95-1.6-.95-2.76,0-1.24.32-2.2.96-2.88s1.48-1.03,2.52-1.03c.91,0,1.65.27,2.21.81.34.32.59.77.76,1.37l-1.48.35c-.09-.39-.27-.69-.55-.91-.28-.22-.62-.33-1.02-.33-.55,0-1,.2-1.34.59-.34.4-.51,1.04-.51,1.92,0,.94.17,1.61.51,2.01.34.4.78.6,1.32.6.4,0,.74-.13,1.03-.38.29-.25.49-.65.62-1.2Z"/><path class="cls-4" d="M101.5,89.95v-1.32h1.42v1.32h-1.42ZM101.5,96.07v-5.38h1.42v5.38h-1.42Z"/><path class="cls-4" d="M106.85,90.68v1.13h-.97v2.17c0,.44,0,.7.03.77.02.07.06.13.13.18.07.05.15.07.24.07.13,0,.32-.05.57-.14l.12,1.1c-.33.14-.71.21-1.12.21-.26,0-.49-.04-.69-.13-.21-.09-.36-.2-.45-.33-.1-.14-.16-.32-.2-.55-.03-.17-.05-.5-.05-1v-2.35h-.65v-1.13h.65v-1.07l1.43-.83v1.9h.97Z"/><path class="cls-4" d="M107.17,90.68h1.51l1.29,3.82,1.26-3.82h1.47l-1.9,5.18-.34.94c-.13.31-.24.55-.36.72-.11.17-.24.3-.39.4-.15.1-.33.18-.54.24-.21.06-.46.09-.73.09s-.54-.03-.81-.09l-.13-1.12c.22.04.42.07.6.07.33,0,.58-.1.73-.29.16-.19.28-.44.37-.74l-2.05-5.4Z"/><path class="cls-4" d="M94,108.52v-7.43h2.24l1.35,5.07,1.33-5.07h2.25v7.43h-1.39v-5.85l-1.47,5.85h-1.44l-1.47-5.85v5.85h-1.39Z"/><path class="cls-4" d="M103.72,104.78l-1.29-.23c.15-.52.4-.91.75-1.16s.88-.38,1.58-.38c.64,0,1.11.08,1.42.23s.53.34.66.57.19.66.19,1.27l-.02,1.66c0,.47.02.82.07,1.05.05.22.13.47.26.72h-1.41c-.04-.09-.08-.23-.14-.42-.02-.08-.04-.14-.05-.17-.24.24-.5.41-.78.53-.28.12-.57.18-.89.18-.55,0-.99-.15-1.31-.45-.32-.3-.48-.68-.48-1.14,0-.3.07-.58.22-.81.15-.24.35-.42.61-.55.26-.13.64-.24,1.13-.33.67-.12,1.13-.24,1.38-.35v-.14c0-.27-.07-.47-.2-.58-.13-.12-.39-.17-.77-.17-.25,0-.45.05-.59.15-.14.1-.26.27-.34.52ZM105.62,105.93c-.18.06-.47.13-.87.22-.4.08-.65.17-.78.25-.19.13-.28.3-.28.5s.07.37.22.52c.15.15.34.22.57.22.26,0,.5-.08.74-.25.17-.13.29-.29.34-.47.04-.12.06-.35.06-.69v-.28Z"/><path class="cls-4" d="M109.79,108.52h-1.42v-5.38h1.32v.77c.23-.36.43-.6.61-.71.18-.11.39-.17.62-.17.32,0,.64.09.94.27l-.44,1.24c-.24-.16-.46-.23-.67-.23s-.37.05-.51.16-.25.31-.33.6c-.08.29-.12.89-.12,1.8v1.66Z"/><path class="cls-4" d="M112.41,108.52v-7.43h1.42v3.94l1.67-1.9h1.75l-1.84,1.97,1.97,3.42h-1.54l-1.35-2.42-.66.69v1.72h-1.42Z"/><path class="cls-4" d="M121.35,106.81l1.42.24c-.18.52-.47.92-.86,1.19s-.89.41-1.48.41c-.94,0-1.63-.31-2.08-.92-.35-.49-.53-1.11-.53-1.85,0-.89.23-1.59.7-2.1.47-.5,1.06-.76,1.77-.76.8,0,1.43.26,1.9.79.46.53.68,1.34.66,2.43h-3.57c0,.42.12.75.34.99.22.23.49.35.82.35.22,0,.41-.06.56-.18.15-.12.27-.32.34-.59ZM121.43,105.37c0-.41-.12-.73-.32-.94-.2-.21-.45-.32-.74-.32-.31,0-.57.11-.77.34-.2.23-.3.53-.3.92h2.13Z"/><path class="cls-4" d="M126.48,103.14v1.13h-.97v2.17c0,.44,0,.7.03.77.02.07.06.13.13.18.07.05.15.07.24.07.13,0,.32-.05.57-.14l.12,1.1c-.33.14-.71.21-1.12.21-.26,0-.49-.04-.69-.13-.21-.09-.36-.2-.45-.33-.1-.14-.16-.32-.2-.55-.03-.17-.05-.5-.05-1v-2.35h-.65v-1.13h.65v-1.07l1.43-.83v1.9h.97Z"/></g></g></g><g id="stop-north-loop"><circle class="cls-5" cx="75.06" cy="144.92" r="5.38"/><g class="cls-6"><path class="cls-4" d="M86.21,150.58v-7.43h1.46l3.04,4.96v-4.96h1.39v7.43h-1.5l-3-4.84v4.84h-1.39Z"/><path class="cls-4" d="M93.35,147.81c0-.47.12-.93.35-1.37.23-.44.56-.78.99-1.01.43-.23.9-.35,1.43-.35.81,0,1.48.26,2,.79.52.53.78,1.2.78,2s-.26,1.49-.79,2.02c-.53.54-1.19.8-1.98.8-.49,0-.96-.11-1.41-.33s-.79-.55-1.02-.98-.35-.96-.35-1.57ZM94.81,147.89c0,.53.13.94.38,1.23s.57.43.94.43.68-.14.94-.43.38-.7.38-1.24-.12-.93-.38-1.22-.56-.43-.94-.43-.68.14-.94.43-.38.69-.38,1.23Z"/><path class="cls-4" d="M101.38,150.58h-1.42v-5.38h1.32v.77c.23-.36.43-.6.61-.71.18-.11.39-.17.62-.17.32,0,.64.09.94.27l-.44,1.24c-.24-.16-.46-.23-.67-.23s-.37.05-.51.16-.25.31-.33.6c-.08.29-.12.89-.12,1.8v1.66Z"/><path class="cls-4" d="M106.52,145.2v1.13h-.97v2.17c0,.44,0,.7.03.77.02.07.06.13.13.18.07.05.15.07.24.07.13,0,.32-.05.57-.14l.12,1.1c-.33.14-.71.21-1.12.21-.26,0-.49-.04-.69-.13-.21-.09-.36-.2-.45-.33-.1-.14-.16-.32-.2-.55-.03-.17-.05-.5-.05-1v-2.35h-.65v-1.13h.65v-1.07l1.43-.83v1.9h.97Z"/><path class="cls-4" d="M108.93,143.15v2.73c.46-.54,1.01-.81,1.65-.81.33,0,.62.06.89.18s.46.28.6.47c.13.19.22.4.27.63.05.23.07.59.07,1.07v3.16h-1.42v-2.84c0-.56-.03-.92-.08-1.07-.05-.15-.15-.27-.29-.36-.14-.09-.31-.13-.51-.13-.24,0-.45.06-.63.17-.19.11-.32.29-.41.52s-.13.57-.13,1.03v2.7h-1.42v-7.43h1.42Z"/><path class="cls-4" d="M116.78,150.58v-7.37h1.5v6.12h3.73v1.25h-5.23Z"/><path class="cls-4" d="M122.74,147.81c0-.47.12-.93.35-1.37.23-.44.56-.78.99-1.01.43-.23.9-.35,1.43-.35.81,0,1.48.26,2,.79.52.53.78,1.2.78,2s-.26,1.49-.79,2.02c-.53.54-1.19.8-1.98.8-.49,0-.96-.11-1.41-.33s-.79-.55-1.02-.98c-.23-.43-.35-.96-.35-1.57ZM124.2,147.89c0,.53.13.94.38,1.23.25.28.57.43.94.43s.68-.14.93-.43c.25-.28.38-.7.38-1.24s-.13-.93-.38-1.22c-.25-.28-.56-.43-.93-.43s-.68.14-.94.43c-.25.28-.38.69-.38,1.23Z"/><path class="cls-4" d="M129.08,147.81c0-.47.12-.93.35-1.37.23-.44.56-.78.99-1.01.43-.23.9-.35,1.43-.35.81,0,1.48.26,2,.79.52.53.78,1.2.78,2s-.26,1.49-.79,2.02c-.53.54-1.19.8-1.98.8-.49,0-.96-.11-1.41-.33s-.79-.55-1.02-.98c-.23-.43-.35-.96-.35-1.57ZM130.54,147.89c0,.53.13.94.38,1.23.25.28.57.43.94.43s.68-.14.93-.43c.25-.28.38-.7.38-1.24s-.13-.93-.38-1.22c-.25-.28-.56-.43-.93-.43s-.68.14-.94.43c-.25.28-.38.69-.38,1.23Z"/><path class="cls-4" d="M135.71,145.2h1.33v.79c.17-.27.41-.49.7-.66s.62-.25.98-.25c.62,0,1.16.25,1.59.73.44.49.65,1.17.65,2.05s-.22,1.6-.66,2.1c-.44.5-.97.75-1.6.75-.3,0-.57-.06-.81-.18-.24-.12-.5-.32-.76-.61v2.71h-1.42v-7.43ZM137.12,147.79c0,.6.12,1.05.36,1.34.24.29.53.43.88.43s.61-.13.83-.4.33-.7.33-1.3c0-.56-.11-.98-.34-1.26-.23-.27-.51-.41-.84-.41s-.64.13-.87.4c-.23.27-.34.67-.34,1.19Z"/></g></g><g id="stop-library"><circle class="cls-5" cx="75.06" cy="177.94" r="5.38"/><g class="cls-6"><path class="cls-4" d="M86.23,182.65v-7.37h1.5v6.12h3.73v1.25h-5.23Z"/><path class="cls-4" d="M92.52,176.54v-1.32h1.42v1.32h-1.42ZM92.52,182.65v-5.38h1.42v5.38h-1.42Z"/><path class="cls-4" d="M95.34,182.65v-7.43h1.42v2.68c.44-.5.96-.75,1.56-.75.66,0,1.2.24,1.63.71.43.47.64,1.16.64,2.04s-.22,1.63-.66,2.12c-.44.5-.97.75-1.59.75-.31,0-.61-.08-.91-.23s-.56-.38-.77-.68v.79h-1.32ZM96.76,179.85c0,.56.09.97.26,1.24.25.38.57.57.98.57.31,0,.58-.13.8-.4.22-.27.33-.69.33-1.27,0-.61-.11-1.06-.33-1.33-.22-.27-.51-.41-.86-.41s-.63.13-.85.4c-.23.27-.34.67-.34,1.21Z"/><path class="cls-4" d="M103.11,182.65h-1.42v-5.38h1.32v.77c.23-.36.43-.6.61-.71.18-.11.39-.17.62-.17.32,0,.64.09.94.27l-.44,1.24c-.24-.16-.46-.23-.67-.23s-.37.05-.51.16-.25.31-.33.6c-.08.29-.12.89-.12,1.8v1.66Z"/><path class="cls-4" d="M106.84,178.91l-1.29-.23c.15-.52.4-.91.75-1.16s.88-.38,1.58-.38c.64,0,1.11.08,1.42.23s.53.34.66.57.19.66.19,1.27l-.02,1.66c0,.47.02.82.07,1.05.05.22.13.47.26.72h-1.41c-.04-.09-.08-.23-.14-.42-.02-.08-.04-.14-.05-.17-.24.24-.5.41-.78.53-.28.12-.57.18-.89.18-.55,0-.99-.15-1.31-.45-.32-.3-.48-.68-.48-1.14,0-.3.07-.58.22-.81.15-.24.35-.42.61-.55.26-.13.64-.24,1.13-.33.67-.12,1.13-.24,1.38-.35v-.14c0-.27-.07-.47-.2-.58-.13-.12-.39-.17-.77-.17-.25,0-.45.05-.59.15-.14.1-.26.27-.34.52ZM108.75,180.07c-.18.06-.47.13-.87.22-.4.08-.65.17-.78.25-.19.13-.28.3-.28.5s.07.37.22.52c.15.15.34.22.57.22.26,0,.5-.08.74-.25.17-.13.29-.29.34-.47.04-.12.06-.35.06-.69v-.28Z"/><path class="cls-4" d="M112.92,182.65h-1.42v-5.38h1.32v.77c.23-.36.43-.6.61-.71.18-.11.39-.17.62-.17.32,0,.64.09.94.27l-.44,1.24c-.24-.16-.46-.23-.67-.23s-.37.05-.51.16-.25.31-.33.6c-.08.29-.12.89-.12,1.8v1.66Z"/><path class="cls-4" d="M114.92,177.27h1.51l1.29,3.82,1.26-3.82h1.47l-1.9,5.18-.34.94c-.13.31-.24.55-.36.72-.11.17-.24.3-.39.4-.15.1-.33.18-.54.24-.21.06-.46.09-.73.09s-.54-.03-.81-.09l-.13-1.12c.22.04.42.07.6.07.33,0,.58-.1.73-.29.16-.19.28-.44.37-.74l-2.05-5.4Z"/></g></g><g id="stop-metro-center"><circle class="cls-5" cx="75.06" cy="221.34" r="5.38"/><g class="cls-6"><g class="cls-6"><path class="cls-4" d="M86.17,227v-7.43h2.24l1.35,5.07,1.33-5.07h2.25v7.43h-1.39v-5.85l-1.47,5.85h-1.44l-1.47-5.85v5.85h-1.39Z"/><path class="cls-4" d="M97.94,225.28l1.42.24c-.18.52-.47.92-.86,1.19-.39.27-.89.41-1.48.41-.94,0-1.63-.31-2.08-.92-.35-.49-.53-1.11-.53-1.85,0-.89.23-1.59.7-2.1s1.06-.76,1.77-.76c.8,0,1.43.26,1.89.79.46.53.69,1.34.66,2.43h-3.57c.01.42.12.75.34.99.22.23.49.35.82.35.22,0,.41-.06.56-.18.15-.12.27-.32.35-.59ZM98.02,223.85c0-.41-.12-.73-.32-.94-.2-.21-.45-.32-.74-.32-.31,0-.57.11-.77.34-.2.23-.3.53-.3.92h2.13Z"/><path class="cls-4" d="M103.07,221.62v1.13h-.97v2.17c0,.44,0,.7.03.77.02.07.06.13.13.18.07.05.15.07.24.07.13,0,.32-.05.57-.14l.12,1.1c-.33.14-.71.21-1.12.21-.26,0-.49-.04-.69-.13-.21-.09-.36-.2-.45-.33-.1-.14-.16-.32-.2-.55-.03-.17-.05-.5-.05-1v-2.35h-.65v-1.13h.65v-1.07l1.43-.83v1.9h.97Z"/><path class="cls-4" d="M105.42,227h-1.42v-5.38h1.32v.77c.23-.36.43-.6.61-.71.18-.11.39-.17.62-.17.32,0,.64.09.94.27l-.44,1.24c-.24-.16-.46-.23-.67-.23s-.37.05-.51.16-.25.31-.33.6c-.08.29-.12.89-.12,1.8v1.66Z"/><path class="cls-4" d="M107.76,224.23c0-.47.12-.93.35-1.37.23-.44.56-.78.99-1.01.43-.23.9-.35,1.43-.35.81,0,1.48.26,2,.79.52.53.78,1.2.78,2s-.26,1.49-.79,2.02c-.53.54-1.19.8-1.98.8-.49,0-.96-.11-1.41-.33s-.79-.55-1.02-.98c-.23-.43-.35-.96-.35-1.57ZM109.22,224.31c0,.53.13.94.38,1.23.25.28.57.43.94.43s.68-.14.93-.43c.25-.28.38-.7.38-1.24s-.13-.93-.38-1.22c-.25-.28-.56-.43-.93-.43s-.68.14-.94.43c-.25.28-.38.69-.38,1.23Z"/></g><g class="cls-6"><path class="cls-4" d="M90.94,236.53l1.45.46c-.22.81-.59,1.41-1.11,1.81s-1.18.59-1.97.59c-.99,0-1.8-.34-2.43-1.01-.64-.67-.95-1.6-.95-2.76,0-1.24.32-2.2.96-2.88s1.48-1.03,2.52-1.03c.91,0,1.65.27,2.21.81.34.32.59.77.76,1.37l-1.48.35c-.09-.39-.27-.69-.55-.91s-.62-.33-1.02-.33c-.55,0-1,.2-1.34.59-.34.4-.51,1.04-.51,1.92,0,.94.17,1.61.51,2.01.34.4.78.6,1.32.6.4,0,.74-.13,1.03-.38.29-.25.49-.65.62-1.2Z"/><path class="cls-4" d="M96.79,237.55l1.42.24c-.18.52-.47.92-.86,1.19-.39.27-.89.41-1.48.41-.94,0-1.63-.31-2.08-.92-.35-.49-.53-1.11-.53-1.85,0-.89.23-1.59.7-2.1s1.06-.76,1.77-.76c.8,0,1.43.26,1.89.79.46.53.69,1.34.66,2.43h-3.57c.01.42.12.75.34.99.22.23.49.35.82.35.22,0,.41-.06.56-.18.15-.12.27-.32.34-.59ZM96.87,236.11c-.01-.41-.12-.73-.32-.94-.2-.21-.45-.32-.74-.32-.31,0-.57.11-.77.34-.2.23-.3.53-.3.92h2.13Z"/><path class="cls-4" d="M104.34,239.26h-1.42v-2.75c0-.58-.03-.96-.09-1.13s-.16-.3-.3-.4c-.14-.09-.3-.14-.49-.14-.25,0-.47.07-.66.2-.2.14-.33.31-.4.54s-.11.64-.11,1.24v2.44h-1.42v-5.38h1.32v.79c.47-.61,1.06-.91,1.77-.91.31,0,.6.06.86.17s.46.26.59.43c.13.18.23.38.28.6s.08.54.08.96v3.34Z"/><path class="cls-4" d="M108.25,233.88v1.13h-.97v2.17c0,.44,0,.7.03.77.02.07.06.13.13.18.07.05.15.07.24.07.13,0,.32-.05.57-.14l.12,1.1c-.33.14-.71.21-1.12.21-.26,0-.49-.04-.69-.13-.21-.09-.36-.2-.45-.33-.1-.14-.16-.32-.2-.55-.03-.17-.05-.5-.05-1v-2.35h-.65v-1.13h.65v-1.07l1.43-.83v1.9h.97Z"/><path class="cls-4" d="M112.36,237.55l1.42.24c-.18.52-.47.92-.86,1.19s-.89.41-1.48.41c-.94,0-1.63-.31-2.08-.92-.35-.49-.53-1.11-.53-1.85,0-.89.23-1.59.7-2.1.47-.5,1.06-.76,1.77-.76.8,0,1.43.26,1.9.79.46.53.68,1.34.66,2.43h-3.57c0,.42.12.75.34.99.22.23.49.35.82.35.22,0,.41-.06.56-.18.15-.12.27-.32.34-.59ZM112.44,236.11c0-.41-.12-.73-.32-.94-.2-.21-.45-.32-.74-.32-.31,0-.57.11-.77.34-.2.23-.3.53-.3.92h2.13Z"/><path class="cls-4" d="M116.38,239.26h-1.42v-5.38h1.32v.77c.23-.36.43-.6.61-.71.18-.11.39-.17.62-.17.32,0,.64.09.94.27l-.44,1.24c-.24-.16-.46-.23-.67-.23s-.37.05-.51.16-.25.31-.33.6c-.08.29-.12.89-.12,1.8v1.66Z"/></g></g></g><g id="stop-power--light"><circle class="cls-5" cx="75.06" cy="267.57" r="5.38"/><g class="cls-6"><path class="cls-4" d="M86.19,273.23v-7.43h2.41c.91,0,1.51.04,1.78.11.43.11.78.35,1.07.73.29.37.43.86.43,1.45,0,.46-.08.84-.25,1.15-.17.31-.38.55-.63.73-.25.18-.51.29-.78.35-.36.07-.88.11-1.56.11h-.98v2.8h-1.5ZM87.69,267.05v2.11h.82c.59,0,.99-.04,1.19-.12s.36-.2.47-.36.17-.36.17-.58c0-.27-.08-.49-.24-.67s-.36-.29-.6-.33c-.18-.03-.54-.05-1.08-.05h-.72Z"/><path class="cls-4" d="M92.77,270.46c0-.47.12-.93.35-1.37.23-.44.56-.78.99-1.01.43-.23.9-.35,1.43-.35.81,0,1.48.26,2,.79.52.53.78,1.2.78,2s-.26,1.49-.79,2.02c-.53.54-1.19.8-1.98.8-.49,0-.96-.11-1.41-.33s-.79-.55-1.02-.98-.35-.96-.35-1.57ZM94.23,270.53c0,.53.13.94.38,1.23s.57.43.94.43.68-.14.94-.43c.25-.28.38-.7.38-1.24s-.13-.93-.38-1.22c-.25-.28-.56-.43-.94-.43s-.68.14-.94.43-.38.69-.38,1.23Z"/><path class="cls-4" d="M100.45,273.23l-1.7-5.38h1.38l1.01,3.53.93-3.53h1.37l.9,3.53,1.03-3.53h1.4l-1.73,5.38h-1.37l-.93-3.46-.91,3.46h-1.38Z"/><path class="cls-4" d="M110.63,271.51l1.42.24c-.18.52-.47.92-.86,1.19s-.89.41-1.48.41c-.94,0-1.63-.31-2.08-.92-.35-.49-.53-1.11-.53-1.85,0-.89.23-1.59.7-2.1.47-.5,1.06-.76,1.77-.76.8,0,1.43.26,1.9.79.46.53.68,1.34.66,2.43h-3.57c0,.42.12.75.34.99.22.23.49.35.82.35.22,0,.41-.06.56-.18.15-.12.27-.32.34-.59ZM110.71,270.07c0-.41-.12-.73-.32-.94-.2-.21-.45-.32-.74-.32-.31,0-.57.11-.77.34-.2.23-.3.53-.3.92h2.13Z"/><path class="cls-4" d="M114.65,273.23h-1.42v-5.38h1.32v.77c.23-.36.43-.6.61-.71.18-.11.39-.17.62-.17.32,0,.64.09.94.27l-.44,1.24c-.24-.16-.46-.23-.67-.23s-.37.05-.51.16-.25.31-.33.6c-.08.29-.12.89-.12,1.8v1.66Z"/><path class="cls-4" d="M126.79,272.32l-.86,1.1c-.42-.21-.83-.49-1.22-.85-.3.27-.62.47-.96.6-.34.13-.74.19-1.21.19-.93,0-1.62-.26-2.09-.78-.36-.4-.54-.86-.54-1.39,0-.48.14-.9.43-1.28.28-.38.71-.71,1.27-.99-.25-.3-.44-.59-.57-.86-.13-.27-.19-.53-.19-.77,0-.45.18-.83.54-1.14.36-.31.87-.47,1.54-.47s1.14.16,1.5.49c.36.33.54.73.54,1.2,0,.3-.09.59-.27.86-.18.27-.54.58-1.08.92l1.03,1.36c.12-.22.23-.5.31-.85l1.29.29c-.13.46-.24.79-.33,1-.09.21-.2.39-.3.53.16.15.36.31.62.49s.44.29.55.35ZM122.36,269.83c-.33.17-.57.37-.73.6-.16.23-.24.47-.24.71,0,.31.1.56.3.75.2.19.47.29.81.29.22,0,.44-.04.64-.13s.43-.23.67-.44l-1.45-1.79ZM122.91,268.28l.38-.29c.28-.22.43-.44.43-.65,0-.18-.07-.34-.21-.47s-.32-.19-.55-.19-.4.06-.53.17c-.13.11-.19.24-.19.39,0,.18.11.39.32.64l.35.41Z"/><path class="cls-4" d="M130.64,273.23v-7.37h1.5v6.12h3.73v1.25h-5.23Z"/><path class="cls-4" d="M136.93,267.11v-1.32h1.42v1.32h-1.42ZM136.93,273.23v-5.38h1.42v5.38h-1.42Z"/><path class="cls-4" d="M139.68,273.58l1.63.2c.03.19.09.32.19.39.13.1.35.15.64.15.37,0,.65-.06.84-.17.12-.07.22-.19.28-.36.04-.12.07-.34.07-.65v-.79c-.43.58-.96.87-1.61.87-.72,0-1.29-.31-1.72-.92-.33-.48-.5-1.08-.5-1.8,0-.9.22-1.59.65-2.07.43-.48.97-.71,1.62-.71s1.21.29,1.65.88v-.75h1.33v4.83c0,.63-.05,1.11-.16,1.42s-.25.56-.44.74c-.19.18-.44.32-.76.42-.32.1-.72.15-1.2.15-.91,0-1.56-.16-1.94-.47s-.57-.71-.57-1.19c0-.05,0-.1,0-.17ZM140.95,270.42c0,.57.11.99.33,1.25.22.27.49.4.82.4.35,0,.64-.14.88-.41s.36-.67.36-1.21-.12-.97-.34-1.24c-.23-.27-.52-.41-.87-.41s-.62.13-.84.4c-.22.27-.33.67-.33,1.21Z"/><path class="cls-4" d="M147.57,265.8v2.73c.46-.54,1.01-.81,1.65-.81.33,0,.62.06.89.18s.46.28.6.47c.13.19.22.4.27.63.05.23.07.59.07,1.07v3.16h-1.42v-2.84c0-.56-.03-.92-.08-1.07-.05-.15-.15-.27-.29-.36-.14-.09-.31-.13-.51-.13-.24,0-.45.06-.63.17-.19.11-.32.29-.41.52s-.13.57-.13,1.03v2.7h-1.42v-7.43h1.42Z"/><path class="cls-4" d="M154.96,267.84v1.13h-.97v2.17c0,.44,0,.7.03.77.02.07.06.13.13.18.07.05.15.07.24.07.13,0,.32-.05.57-.14l.12,1.1c-.33.14-.71.21-1.12.21-.26,0-.49-.04-.69-.13-.21-.09-.36-.2-.45-.33-.1-.14-.16-.32-.2-.55-.03-.17-.05-.5-.05-1v-2.35h-.65v-1.13h.65v-1.07l1.43-.83v1.9h.97Z"/></g></g><g id="stop-kauffman-center"><circle class="cls-5" cx="75.06" cy="307.19" r="5.38"/><g class="cls-6"><g class="cls-6"><path class="cls-4" d="M86.21,312.85v-7.43h1.5v3.3l3.03-3.3h2.02l-2.8,2.89,2.95,4.54h-1.94l-2.04-3.49-1.22,1.24v2.24h-1.5Z"/><path class="cls-4" d="M94.74,309.11l-1.29-.23c.15-.52.4-.91.75-1.16.35-.25.88-.38,1.58-.38.64,0,1.11.08,1.42.23.31.15.53.34.66.57s.19.66.19,1.27l-.02,1.66c0,.47.02.82.07,1.05s.13.47.26.72h-1.41c-.04-.09-.08-.23-.14-.42-.02-.08-.04-.14-.05-.17-.24.24-.5.41-.78.53s-.57.18-.89.18c-.55,0-.99-.15-1.31-.45-.32-.3-.48-.68-.48-1.14,0-.3.07-.58.22-.81.15-.24.35-.42.61-.55.26-.13.64-.24,1.13-.33.67-.12,1.13-.24,1.38-.35v-.14c0-.27-.07-.47-.2-.58-.14-.12-.39-.17-.77-.17-.25,0-.45.05-.59.15-.14.1-.26.27-.34.52ZM96.64,310.27c-.18.06-.47.13-.87.22-.4.08-.65.17-.77.25-.19.13-.28.3-.28.5s.07.37.22.52c.15.15.34.22.57.22.26,0,.5-.08.73-.25.17-.13.29-.29.34-.47.04-.12.06-.35.06-.69v-.28Z"/><path class="cls-4" d="M102.99,312.85v-.81c-.2.29-.45.51-.77.68-.32.17-.66.25-1.01.25s-.69-.08-.97-.24-.5-.38-.62-.67c-.13-.29-.19-.68-.19-1.19v-3.41h1.42v2.47c0,.76.03,1.22.08,1.39.05.17.15.31.29.41s.31.15.53.15c.24,0,.46-.07.65-.2.19-.13.33-.3.4-.5.07-.2.11-.68.11-1.45v-2.27h1.42v5.38h-1.32Z"/><path class="cls-4" d="M105.16,307.47h.79v-.41c0-.45.05-.79.14-1.01.1-.22.27-.4.53-.54.26-.14.58-.21.98-.21s.8.06,1.19.18l-.19.99c-.23-.05-.44-.08-.65-.08s-.35.05-.44.14c-.09.1-.13.28-.13.55v.38h1.06v1.12h-1.06v4.26h-1.42v-4.26h-.79v-1.12Z"/><path class="cls-4" d="M108.62,307.47h.79v-.41c0-.45.05-.79.14-1.01.1-.22.27-.4.53-.54.26-.14.58-.21.98-.21s.8.06,1.19.18l-.19.99c-.23-.05-.44-.08-.65-.08s-.35.05-.44.14c-.09.1-.13.28-.13.55v.38h1.06v1.12h-1.06v4.26h-1.42v-4.26h-.79v-1.12Z"/><path class="cls-4" d="M112.59,307.47h1.31v.73c.47-.57,1.03-.86,1.68-.86.34,0,.64.07.9.21.25.14.46.36.62.64.24-.29.49-.5.77-.64.27-.14.57-.21.88-.21.4,0,.73.08,1,.24.27.16.48.4.61.71.1.23.15.6.15,1.11v3.44h-1.42v-3.08c0-.53-.05-.88-.15-1.03-.13-.2-.33-.3-.61-.3-.2,0-.39.06-.56.18s-.3.3-.38.53c-.08.23-.12.61-.12,1.11v2.58h-1.42v-2.95c0-.52-.03-.86-.08-1.01-.05-.15-.13-.27-.24-.34s-.25-.11-.43-.11c-.22,0-.42.06-.59.18s-.3.29-.38.51-.11.59-.11,1.11v2.61h-1.42v-5.38Z"/><path class="cls-4" d="M122.99,309.11l-1.29-.23c.15-.52.4-.91.75-1.16s.88-.38,1.58-.38c.64,0,1.11.08,1.42.23s.53.34.66.57.19.66.19,1.27l-.02,1.66c0,.47.02.82.07,1.05.05.22.13.47.26.72h-1.41c-.04-.09-.08-.23-.14-.42-.02-.08-.04-.14-.05-.17-.24.24-.5.41-.78.53-.28.12-.57.18-.89.18-.55,0-.99-.15-1.31-.45-.32-.3-.48-.68-.48-1.14,0-.3.07-.58.22-.81.15-.24.35-.42.61-.55.26-.13.64-.24,1.13-.33.67-.12,1.13-.24,1.38-.35v-.14c0-.27-.07-.47-.2-.58-.13-.12-.39-.17-.77-.17-.25,0-.45.05-.59.15-.14.1-.26.27-.34.52ZM124.9,310.27c-.18.06-.47.13-.87.22-.4.08-.65.17-.78.25-.19.13-.28.3-.28.5s.07.37.22.52c.15.15.34.22.57.22.26,0,.5-.08.74-.25.17-.13.29-.29.34-.47.04-.12.06-.35.06-.69v-.28Z"/><path class="cls-4" d="M132.59,312.85h-1.42v-2.75c0-.58-.03-.96-.09-1.13s-.16-.3-.3-.4c-.14-.09-.3-.14-.49-.14-.25,0-.47.07-.66.2-.2.14-.33.31-.4.54s-.11.64-.11,1.24v2.44h-1.42v-5.38h1.32v.79c.47-.61,1.06-.91,1.77-.91.31,0,.6.06.86.17s.46.26.59.43c.13.18.23.38.28.6s.08.54.08.96v3.34Z"/></g><g class="cls-6"><path class="cls-4" d="M90.94,322.38l1.45.46c-.22.81-.59,1.41-1.11,1.81s-1.18.59-1.97.59c-.99,0-1.8-.34-2.43-1.01-.64-.67-.95-1.6-.95-2.76,0-1.24.32-2.2.96-2.88s1.48-1.03,2.52-1.03c.91,0,1.65.27,2.21.81.34.32.59.77.76,1.37l-1.48.35c-.09-.39-.27-.69-.55-.91s-.62-.33-1.02-.33c-.55,0-1,.2-1.34.59-.34.4-.51,1.04-.51,1.92,0,.94.17,1.61.51,2.01.34.4.78.6,1.32.6.4,0,.74-.13,1.03-.38.29-.25.49-.65.62-1.2Z"/><path class="cls-4" d="M96.79,323.4l1.42.24c-.18.52-.47.92-.86,1.19-.39.27-.89.41-1.48.41-.94,0-1.63-.31-2.08-.92-.35-.49-.53-1.11-.53-1.85,0-.89.23-1.59.7-2.1s1.06-.76,1.77-.76c.8,0,1.43.26,1.89.79.46.53.69,1.34.66,2.43h-3.57c.01.42.12.75.34.99.22.23.49.35.82.35.22,0,.41-.06.56-.18.15-.12.27-.32.34-.59ZM96.87,321.96c-.01-.41-.12-.73-.32-.94-.2-.21-.45-.32-.74-.32-.31,0-.57.11-.77.34-.2.23-.3.53-.3.92h2.13Z"/><path class="cls-4" d="M104.34,325.12h-1.42v-2.75c0-.58-.03-.96-.09-1.13s-.16-.3-.3-.4c-.14-.09-.3-.14-.49-.14-.25,0-.47.07-.66.2-.2.14-.33.31-.4.54s-.11.64-.11,1.24v2.44h-1.42v-5.38h1.32v.79c.47-.61,1.06-.91,1.77-.91.31,0,.6.06.86.17s.46.26.59.43c.13.18.23.38.28.6s.08.54.08.96v3.34Z"/><path class="cls-4" d="M108.25,319.73v1.13h-.97v2.17c0,.44,0,.7.03.77.02.07.06.13.13.18.07.05.15.07.24.07.13,0,.32-.05.57-.14l.12,1.1c-.33.14-.71.21-1.12.21-.26,0-.49-.04-.69-.13-.21-.09-.36-.2-.45-.33-.1-.14-.16-.32-.2-.55-.03-.17-.05-.5-.05-1v-2.35h-.65v-1.13h.65v-1.07l1.43-.83v1.9h.97Z"/><path class="cls-4" d="M112.36,323.4l1.42.24c-.18.52-.47.92-.86,1.19s-.89.41-1.48.41c-.94,0-1.63-.31-2.08-.92-.35-.49-.53-1.11-.53-1.85,0-.89.23-1.59.7-2.1.47-.5,1.06-.76,1.77-.76.8,0,1.43.26,1.9.79.46.53.68,1.34.66,2.43h-3.57c0,.42.12.75.34.99.22.23.49.35.82.35.22,0,.41-.06.56-.18.15-.12.27-.32.34-.59ZM112.44,321.96c0-.41-.12-.73-.32-.94-.2-.21-.45-.32-.74-.32-.31,0-.57.11-.77.34-.2.23-.3.53-.3.92h2.13Z"/><path class="cls-4" d="M116.38,325.12h-1.42v-5.38h1.32v.77c.23-.36.43-.6.61-.71.18-.11.39-.17.62-.17.32,0,.64.09.94.27l-.44,1.24c-.24-.16-.46-.23-.67-.23s-.37.05-.51.16-.25.31-.33.6c-.08.29-.12.89-.12,1.8v1.66Z"/></g></g></g><g id="stop-crossroads"><circle class="cls-5" cx="75.06" cy="354.36" r="5.38"/><g class="cls-6"><path class="cls-4" d="M90.94,357.29l1.45.46c-.22.81-.59,1.41-1.11,1.81s-1.18.59-1.97.59c-.99,0-1.8-.34-2.43-1.01-.64-.67-.95-1.6-.95-2.76,0-1.24.32-2.2.96-2.88s1.48-1.03,2.52-1.03c.91,0,1.65.27,2.21.81.34.32.59.77.76,1.37l-1.48.35c-.09-.39-.27-.69-.55-.91s-.62-.33-1.02-.33c-.55,0-1,.2-1.34.59-.34.4-.51,1.04-.51,1.92,0,.94.17,1.61.51,2.01.34.4.78.6,1.32.6.4,0,.74-.13,1.03-.38.29-.25.49-.65.62-1.2Z"/><path class="cls-4" d="M95.04,360.03h-1.42v-5.38h1.32v.77c.23-.36.43-.6.61-.71.18-.11.39-.17.62-.17.32,0,.64.09.94.27l-.44,1.24c-.24-.16-.46-.23-.67-.23s-.37.05-.51.16c-.14.11-.25.31-.33.6-.08.29-.12.89-.12,1.8v1.66Z"/><path class="cls-4" d="M97.38,357.26c0-.47.12-.93.35-1.37.23-.44.56-.78.99-1.01.43-.23.9-.35,1.43-.35.81,0,1.48.26,2,.79.52.53.78,1.2.78,2s-.26,1.49-.79,2.02c-.53.54-1.19.8-1.98.8-.49,0-.96-.11-1.41-.33s-.79-.55-1.02-.98c-.23-.43-.35-.96-.35-1.57ZM98.84,357.33c0,.53.13.94.38,1.23.25.28.57.43.94.43s.68-.14.93-.43c.25-.28.38-.7.38-1.24s-.13-.93-.38-1.22c-.25-.28-.56-.43-.93-.43s-.68.14-.94.43c-.25.28-.38.69-.38,1.23Z"/><path class="cls-4" d="M103.55,358.49l1.43-.22c.06.28.18.49.37.63s.45.22.78.22c.37,0,.65-.07.83-.2.12-.09.19-.22.19-.38,0-.11-.03-.2-.1-.27-.07-.07-.23-.13-.48-.19-1.15-.25-1.88-.48-2.18-.69-.43-.29-.64-.69-.64-1.21,0-.47.18-.86.55-1.18s.94-.48,1.71-.48,1.28.12,1.64.36c.36.24.6.59.74,1.06l-1.34.25c-.06-.21-.17-.37-.33-.48-.16-.11-.39-.17-.69-.17-.38,0-.64.05-.81.16-.11.07-.16.17-.16.29,0,.1.05.19.14.26.13.09.57.23,1.33.4.76.17,1.29.38,1.59.63.3.25.45.61.45,1.06,0,.49-.21.92-.62,1.27-.41.35-1.02.53-1.83.53-.73,0-1.31-.15-1.74-.45-.43-.3-.71-.7-.84-1.21Z"/><path class="cls-4" d="M109.32,358.49l1.43-.22c.06.28.18.49.37.63s.45.22.78.22c.37,0,.65-.07.83-.2.12-.09.19-.22.19-.38,0-.11-.03-.2-.1-.27-.07-.07-.23-.13-.48-.19-1.15-.25-1.88-.48-2.18-.69-.43-.29-.64-.69-.64-1.21,0-.47.18-.86.55-1.18s.94-.48,1.71-.48,1.28.12,1.64.36c.36.24.6.59.74,1.06l-1.34.25c-.06-.21-.17-.37-.33-.48-.16-.11-.39-.17-.69-.17-.38,0-.64.05-.81.16-.11.07-.16.17-.16.29,0,.1.05.19.14.26.13.09.57.23,1.33.4.76.17,1.29.38,1.59.63.3.25.45.61.45,1.06,0,.49-.21.92-.62,1.27-.41.35-1.02.53-1.83.53-.73,0-1.31-.15-1.74-.45-.43-.3-.71-.7-.84-1.21Z"/><path class="cls-4" d="M116.96,360.03h-1.42v-5.38h1.32v.77c.23-.36.43-.6.61-.71.18-.11.39-.17.62-.17.32,0,.64.09.94.27l-.44,1.24c-.24-.16-.46-.23-.67-.23s-.37.05-.51.16-.25.31-.33.6c-.08.29-.12.89-.12,1.8v1.66Z"/><path class="cls-4" d="M119.31,357.26c0-.47.12-.93.35-1.37.23-.44.56-.78.99-1.01.43-.23.9-.35,1.43-.35.81,0,1.48.26,2,.79.52.53.78,1.2.78,2s-.26,1.49-.79,2.02c-.53.54-1.19.8-1.98.8-.49,0-.96-.11-1.41-.33s-.79-.55-1.02-.98c-.23-.43-.35-.96-.35-1.57ZM120.77,357.33c0,.53.13.94.38,1.23.25.28.57.43.94.43s.68-.14.93-.43c.25-.28.38-.7.38-1.24s-.13-.93-.38-1.22c-.25-.28-.56-.43-.93-.43s-.68.14-.94.43c-.25.28-.38.69-.38,1.23Z"/><path class="cls-4" d="M127.04,356.29l-1.29-.23c.15-.52.4-.91.75-1.16s.88-.38,1.58-.38c.64,0,1.11.08,1.42.23s.53.34.66.57.19.66.19,1.27l-.02,1.66c0,.47.02.82.07,1.05.05.22.13.47.26.72h-1.41c-.04-.09-.08-.23-.14-.42-.02-.08-.04-.14-.05-.17-.24.24-.5.41-.78.53-.28.12-.57.18-.89.18-.55,0-.99-.15-1.31-.45-.32-.3-.48-.68-.48-1.14,0-.3.07-.58.22-.81.15-.24.35-.42.61-.55.26-.13.64-.24,1.13-.33.67-.12,1.13-.24,1.38-.35v-.14c0-.27-.07-.47-.2-.58-.13-.12-.39-.17-.77-.17-.25,0-.45.05-.59.15-.14.1-.26.27-.34.52ZM128.94,357.44c-.18.06-.47.13-.87.22-.4.08-.65.17-.78.25-.19.13-.28.3-.28.5s.07.37.22.52c.15.15.34.22.57.22.26,0,.5-.08.74-.25.17-.13.29-.29.34-.47.04-.12.06-.35.06-.69v-.28Z"/><path class="cls-4" d="M136.68,360.03h-1.32v-.79c-.22.31-.48.54-.78.69s-.6.23-.9.23c-.62,0-1.15-.25-1.59-.75-.44-.5-.66-1.19-.66-2.08s.21-1.61.64-2.08.97-.71,1.63-.71c.6,0,1.12.25,1.56.75v-2.68h1.42v7.43ZM132.88,357.22c0,.57.08.99.24,1.25.23.37.55.56.96.56.33,0,.61-.14.84-.42s.34-.69.34-1.25c0-.62-.11-1.06-.33-1.34-.22-.27-.51-.41-.86-.41s-.62.13-.85.4c-.23.27-.34.67-.34,1.2Z"/><path class="cls-4" d="M137.58,358.49l1.43-.22c.06.28.18.49.37.63s.45.22.78.22c.37,0,.65-.07.83-.2.12-.09.19-.22.19-.38,0-.11-.03-.2-.1-.27-.07-.07-.23-.13-.48-.19-1.15-.25-1.88-.48-2.18-.69-.43-.29-.64-.69-.64-1.21,0-.47.18-.86.55-1.18s.94-.48,1.71-.48,1.28.12,1.64.36c.36.24.6.59.74,1.06l-1.34.25c-.06-.21-.17-.37-.33-.48-.16-.11-.39-.17-.69-.17-.38,0-.64.05-.81.16-.11.07-.16.17-.16.29,0,.1.05.19.14.26.13.09.57.23,1.33.4.76.17,1.29.38,1.59.63.3.25.45.61.45,1.06,0,.49-.21.92-.62,1.27-.41.35-1.02.53-1.83.53-.73,0-1.31-.15-1.74-.45-.43-.3-.71-.7-.84-1.21Z"/></g></g><g id="stop-union-station"><circle class="cls-5" cx="75.06" cy="435.5" r="5.38"/><g class="cls-6"><path class="cls-4" d="M86.18,433.73h1.5v4.02c0,.64.02,1.05.06,1.24.06.3.22.55.46.73.24.18.57.28.99.28s.75-.09.96-.26c.22-.17.35-.39.39-.64.04-.25.07-.67.07-1.26v-4.11h1.5v3.9c0,.89-.04,1.52-.12,1.89-.08.37-.23.68-.45.93-.22.25-.51.46-.87.61-.36.15-.84.23-1.43.23-.71,0-1.25-.08-1.61-.25-.37-.16-.66-.38-.87-.64-.21-.26-.35-.54-.42-.82-.1-.43-.15-1.05-.15-1.89v-3.96Z"/><path class="cls-4" d="M98.57,441.16h-1.42v-2.75c0-.58-.03-.96-.09-1.13s-.16-.3-.3-.4c-.14-.09-.3-.14-.49-.14-.25,0-.47.07-.66.2s-.33.31-.4.54-.11.64-.11,1.24v2.44h-1.42v-5.38h1.32v.79c.47-.61,1.06-.91,1.77-.91.31,0,.6.06.86.17s.46.26.59.43c.13.18.22.38.28.6s.08.54.08.96v3.34Z"/><path class="cls-4" d="M100.01,435.05v-1.32h1.42v1.32h-1.42ZM100.01,441.16v-5.38h1.42v5.38h-1.42Z"/><path class="cls-4" d="M102.57,438.4c0-.47.12-.93.35-1.37.23-.44.56-.78.99-1.01.43-.23.9-.35,1.43-.35.81,0,1.48.26,2,.79.52.53.78,1.2.78,2s-.26,1.49-.79,2.02c-.53.54-1.19.8-1.98.8-.49,0-.96-.11-1.41-.33s-.79-.55-1.02-.98c-.23-.43-.35-.96-.35-1.57ZM104.03,438.47c0,.53.13.94.38,1.23.25.28.57.43.94.43s.68-.14.93-.43c.25-.28.38-.7.38-1.24s-.13-.93-.38-1.22c-.25-.28-.56-.43-.93-.43s-.68.14-.94.43c-.25.28-.38.69-.38,1.23Z"/><path class="cls-4" d="M114.13,441.16h-1.42v-2.75c0-.58-.03-.96-.09-1.13s-.16-.3-.3-.4c-.14-.09-.3-.14-.49-.14-.25,0-.47.07-.66.2-.2.14-.33.31-.4.54s-.11.64-.11,1.24v2.44h-1.42v-5.38h1.32v.79c.47-.61,1.06-.91,1.77-.91.31,0,.6.06.86.17s.46.26.59.43c.13.18.23.38.28.6s.08.54.08.96v3.34Z"/><path class="cls-4" d="M118.09,438.75l1.46-.14c.09.49.27.85.54,1.08.27.23.63.34,1.09.34.48,0,.85-.1,1.09-.31.25-.2.37-.44.37-.72,0-.18-.05-.33-.15-.45-.1-.12-.28-.23-.54-.32-.17-.06-.58-.17-1.2-.32-.8-.2-1.37-.44-1.69-.73-.46-.41-.68-.91-.68-1.49,0-.38.11-.73.32-1.06.21-.33.52-.58.93-.75.4-.17.89-.26,1.46-.26.93,0,1.63.2,2.11.61.47.41.72.95.74,1.64l-1.5.07c-.06-.38-.2-.66-.41-.82-.21-.17-.53-.25-.95-.25s-.78.09-1.02.27c-.16.11-.24.27-.24.46,0,.18.07.33.22.45.19.16.65.32,1.38.5s1.27.35,1.62.53.62.44.82.75c.2.32.3.71.3,1.18,0,.43-.12.82-.35,1.2s-.57.65-1,.83c-.43.18-.97.27-1.62.27-.94,0-1.66-.22-2.16-.65-.5-.43-.8-1.07-.9-1.9Z"/><path class="cls-4" d="M127.85,435.78v1.13h-.97v2.17c0,.44,0,.7.03.77.02.07.06.13.13.18.07.05.15.07.24.07.13,0,.32-.05.57-.14l.12,1.1c-.33.14-.71.21-1.12.21-.26,0-.49-.04-.69-.13-.21-.09-.36-.2-.45-.33-.1-.14-.16-.32-.2-.55-.03-.17-.05-.5-.05-1v-2.35h-.65v-1.13h.65v-1.07l1.43-.83v1.9h.97Z"/><path class="cls-4" d="M129.9,437.42l-1.29-.23c.15-.52.4-.91.75-1.16s.88-.38,1.58-.38c.64,0,1.11.08,1.42.23s.53.34.66.57.19.66.19,1.27l-.02,1.66c0,.47.02.82.07,1.05.05.22.13.47.26.72h-1.41c-.04-.09-.08-.23-.14-.42-.02-.08-.04-.14-.05-.17-.24.24-.5.41-.78.53-.28.12-.57.18-.89.18-.55,0-.99-.15-1.31-.45-.32-.3-.48-.68-.48-1.14,0-.3.07-.58.22-.81.15-.24.35-.42.61-.55.26-.13.64-.24,1.13-.33.67-.12,1.13-.24,1.38-.35v-.14c0-.27-.07-.47-.2-.58-.13-.12-.39-.17-.77-.17-.25,0-.45.05-.59.15-.14.1-.26.27-.34.52ZM131.81,438.58c-.18.06-.47.13-.87.22-.4.08-.65.17-.78.25-.19.13-.28.3-.28.5s.07.37.22.52c.15.15.34.22.57.22.26,0,.5-.08.74-.25.17-.13.29-.29.34-.47.04-.12.06-.35.06-.69v-.28Z"/><path class="cls-4" d="M137.08,435.78v1.13h-.97v2.17c0,.44,0,.7.03.77.02.07.06.13.13.18.07.05.15.07.24.07.13,0,.32-.05.57-.14l.12,1.1c-.33.14-.71.21-1.12.21-.26,0-.49-.04-.69-.13-.21-.09-.36-.2-.45-.33-.1-.14-.16-.32-.2-.55-.03-.17-.05-.5-.05-1v-2.35h-.65v-1.13h.65v-1.07l1.43-.83v1.9h.97Z"/><path class="cls-4" d="M138.07,435.05v-1.32h1.42v1.32h-1.42ZM138.07,441.16v-5.38h1.42v5.38h-1.42Z"/><path class="cls-4" d="M140.62,438.4c0-.47.12-.93.35-1.37.23-.44.56-.78.99-1.01.43-.23.9-.35,1.43-.35.81,0,1.48.26,2,.79.52.53.78,1.2.78,2s-.26,1.49-.79,2.02c-.53.54-1.19.8-1.98.8-.49,0-.96-.11-1.41-.33s-.79-.55-1.02-.98c-.23-.43-.35-.96-.35-1.57ZM142.08,438.47c0,.53.13.94.38,1.23.25.28.57.43.94.43s.68-.14.93-.43c.25-.28.38-.7.38-1.24s-.13-.93-.38-1.22c-.25-.28-.56-.43-.93-.43s-.68.14-.94.43c-.25.28-.38.69-.38,1.23Z"/><path class="cls-4" d="M152.18,441.16h-1.42v-2.75c0-.58-.03-.96-.09-1.13s-.16-.3-.3-.4c-.14-.09-.3-.14-.49-.14-.25,0-.47.07-.66.2-.2.14-.33.31-.4.54s-.11.64-.11,1.24v2.44h-1.42v-5.38h1.32v.79c.47-.61,1.06-.91,1.77-.91.31,0,.6.06.86.17s.46.26.59.43c.13.18.23.38.28.6s.08.54.08.96v3.34Z"/></g></g><g id="stop-wwi-museum--memorial"><circle class="cls-5" cx="75.06" cy="486.45" r="5.38"/><g class="cls-6"><g class="cls-6"><path class="cls-4" d="M87.24,494l-1.77-7.43h1.54l1.12,5.1,1.36-5.1h1.78l1.3,5.19,1.14-5.19h1.51l-1.8,7.43h-1.59l-1.48-5.55-1.47,5.55h-1.63Z"/><path class="cls-4" d="M97.04,494l-1.77-7.43h1.54l1.12,5.1,1.36-5.1h1.78l1.3,5.19,1.14-5.19h1.51l-1.8,7.43h-1.59l-1.48-5.55-1.47,5.55h-1.63Z"/><path class="cls-4" d="M105.74,494v-7.43h1.5v7.43h-1.5Z"/><path class="cls-4" d="M111.53,494v-7.43h2.25l1.35,5.07,1.33-5.07h2.25v7.43h-1.39v-5.85l-1.47,5.85h-1.44l-1.47-5.85v5.85h-1.39Z"/><path class="cls-4" d="M123.72,494v-.81c-.2.29-.45.51-.77.68-.32.17-.66.25-1.01.25s-.69-.08-.97-.24c-.29-.16-.5-.38-.62-.67-.13-.29-.19-.68-.19-1.19v-3.41h1.42v2.47c0,.76.03,1.22.08,1.39.05.17.15.31.29.41s.31.15.53.15c.24,0,.46-.07.65-.2.19-.13.33-.3.4-.5.07-.2.11-.68.11-1.45v-2.27h1.42v5.38h-1.32Z"/><path class="cls-4" d="M126.02,492.46l1.43-.22c.06.28.18.49.37.63s.45.21.78.21c.37,0,.65-.07.83-.2.12-.09.19-.22.19-.38,0-.11-.03-.2-.1-.27-.07-.07-.23-.13-.48-.19-1.15-.25-1.88-.48-2.18-.69-.43-.29-.64-.69-.64-1.21,0-.47.18-.86.55-1.18.37-.32.94-.48,1.71-.48s1.28.12,1.64.36c.36.24.6.59.74,1.06l-1.34.25c-.06-.21-.17-.37-.33-.48s-.39-.17-.69-.17c-.38,0-.64.05-.81.16-.11.07-.16.17-.16.29,0,.1.05.19.14.26.13.09.57.23,1.33.4.76.17,1.29.38,1.59.63.3.25.45.61.45,1.06,0,.49-.21.92-.62,1.27-.41.35-1.02.53-1.83.53-.73,0-1.31-.15-1.74-.45-.43-.3-.71-.7-.84-1.21Z"/><path class="cls-4" d="M135.41,492.28l1.42.24c-.18.52-.47.92-.86,1.19-.39.27-.89.41-1.48.41-.94,0-1.63-.31-2.08-.92-.35-.49-.53-1.11-.53-1.85,0-.89.23-1.59.7-2.1.47-.5,1.06-.76,1.77-.76.8,0,1.43.26,1.9.79.46.53.68,1.34.66,2.43h-3.57c0,.42.12.75.34.99.22.24.49.35.82.35.22,0,.41-.06.56-.18.15-.12.27-.32.34-.59ZM135.49,490.84c0-.41-.12-.72-.32-.94-.2-.21-.45-.32-.74-.32-.31,0-.57.11-.77.34-.2.23-.3.53-.3.92h2.13Z"/><path class="cls-4" d="M141.61,494v-.81c-.2.29-.45.51-.77.68-.32.17-.66.25-1.01.25s-.69-.08-.97-.24c-.29-.16-.5-.38-.62-.67-.13-.29-.19-.68-.19-1.19v-3.41h1.42v2.47c0,.76.03,1.22.08,1.39.05.17.15.31.29.41s.31.15.53.15c.24,0,.46-.07.65-.2.19-.13.33-.3.4-.5.07-.2.11-.68.11-1.45v-2.27h1.42v5.38h-1.32Z"/><path class="cls-4" d="M144.3,488.61h1.31v.74c.47-.57,1.03-.86,1.68-.86.34,0,.64.07.9.21.25.14.46.36.62.64.24-.29.49-.5.77-.64.27-.14.57-.21.88-.21.4,0,.73.08,1,.24.27.16.48.4.61.71.1.23.15.6.15,1.12v3.44h-1.42v-3.08c0-.53-.05-.88-.15-1.03-.13-.2-.33-.3-.61-.3-.2,0-.39.06-.56.18-.18.12-.3.3-.38.54-.08.23-.12.61-.12,1.11v2.58h-1.42v-2.95c0-.52-.03-.86-.08-1.01-.05-.15-.13-.26-.24-.34-.11-.08-.25-.11-.43-.11-.22,0-.42.06-.59.18s-.3.29-.38.51-.11.59-.11,1.11v2.62h-1.42v-5.38Z"/></g><g class="cls-6"><path class="cls-4" d="M92.76,505.35l-.86,1.1c-.42-.21-.83-.49-1.22-.85-.3.27-.62.47-.96.6-.34.13-.74.19-1.21.19-.93,0-1.62-.26-2.09-.78-.36-.4-.54-.87-.54-1.39,0-.48.14-.9.43-1.28.28-.38.71-.71,1.27-.99-.25-.3-.44-.59-.57-.86-.13-.27-.19-.53-.19-.77,0-.45.18-.83.54-1.14s.87-.47,1.54-.47,1.14.16,1.5.49c.36.33.54.73.54,1.2,0,.3-.09.59-.27.86-.18.27-.54.58-1.08.92l1.03,1.36c.12-.22.23-.5.31-.85l1.29.29c-.13.46-.24.79-.33,1-.09.21-.2.39-.3.53.16.15.36.31.62.49.25.18.44.29.56.35ZM88.33,502.86c-.33.17-.57.37-.73.6-.16.23-.24.47-.24.71,0,.31.1.56.3.75.2.19.47.29.81.29.22,0,.44-.04.64-.13s.43-.23.67-.44l-1.45-1.79ZM88.89,501.31l.39-.29c.28-.22.43-.44.43-.65,0-.18-.07-.34-.21-.47-.14-.13-.32-.19-.56-.19s-.4.06-.53.17c-.13.11-.19.24-.19.39,0,.17.11.39.32.64l.35.41Z"/><path class="cls-4" d="M96.55,506.26v-7.43h2.24l1.35,5.07,1.33-5.07h2.25v7.43h-1.39v-5.85l-1.47,5.85h-1.44l-1.47-5.85v5.85h-1.39Z"/><path class="cls-4" d="M108.32,504.55l1.42.24c-.18.52-.47.92-.86,1.19-.39.27-.89.41-1.48.41-.94,0-1.63-.31-2.08-.92-.35-.49-.53-1.11-.53-1.85,0-.89.23-1.59.7-2.1.47-.5,1.06-.76,1.77-.76.8,0,1.43.26,1.9.79.46.53.68,1.34.66,2.43h-3.57c0,.42.12.75.34.99.22.24.49.35.82.35.22,0,.41-.06.56-.18.15-.12.27-.32.34-.59ZM108.4,503.11c0-.41-.12-.72-.32-.94-.2-.21-.45-.32-.74-.32-.31,0-.57.11-.77.34-.2.23-.3.53-.3.92h2.13Z"/><path class="cls-4" d="M110.87,500.88h1.31v.74c.47-.57,1.03-.86,1.68-.86.34,0,.64.07.9.21.25.14.46.36.62.64.24-.29.49-.5.77-.64.27-.14.57-.21.88-.21.4,0,.73.08,1,.24.27.16.48.4.61.71.1.23.15.6.15,1.12v3.44h-1.42v-3.08c0-.53-.05-.88-.15-1.03-.13-.2-.33-.3-.61-.3-.2,0-.39.06-.56.18-.18.12-.3.3-.38.54-.08.23-.12.61-.12,1.11v2.58h-1.42v-2.95c0-.52-.03-.86-.08-1.01-.05-.15-.13-.26-.24-.34-.11-.08-.25-.11-.43-.11-.22,0-.42.06-.59.18s-.3.29-.38.51-.11.59-.11,1.11v2.62h-1.42v-5.38Z"/><path class="cls-4" d="M119.87,503.49c0-.47.12-.93.35-1.37.23-.44.56-.78.99-1.01.43-.23.9-.35,1.43-.35.81,0,1.48.26,2,.79.52.53.78,1.2.78,2s-.26,1.49-.79,2.02-1.19.8-1.98.8c-.49,0-.96-.11-1.41-.33s-.79-.55-1.02-.98c-.23-.43-.35-.96-.35-1.57ZM121.33,503.57c0,.53.13.94.38,1.23.25.28.57.43.94.43s.68-.14.93-.43c.25-.28.38-.7.38-1.24s-.13-.93-.38-1.22c-.25-.28-.56-.43-.93-.43s-.68.14-.94.43c-.25.28-.38.69-.38,1.23Z"/><path class="cls-4" d="M127.91,506.26h-1.42v-5.38h1.32v.77c.23-.36.43-.6.61-.71.18-.11.39-.17.62-.17.32,0,.64.09.94.27l-.44,1.24c-.24-.16-.46-.23-.67-.23s-.37.06-.51.17-.25.31-.33.6c-.08.29-.12.89-.12,1.8v1.66Z"/><path class="cls-4" d="M130.58,500.15v-1.32h1.42v1.32h-1.42ZM130.58,506.26v-5.38h1.42v5.38h-1.42Z"/><path class="cls-4" d="M134.53,502.52l-1.29-.23c.15-.52.4-.91.75-1.16s.88-.38,1.58-.38c.64,0,1.11.08,1.42.23s.53.34.66.57.19.66.19,1.27l-.02,1.66c0,.47.02.82.07,1.05.05.22.13.46.26.72h-1.41c-.04-.09-.08-.23-.14-.42-.02-.08-.04-.14-.05-.17-.24.24-.5.41-.78.53-.28.12-.57.18-.89.18-.55,0-.99-.15-1.31-.45s-.48-.68-.48-1.14c0-.3.07-.58.22-.81s.35-.42.61-.55.64-.24,1.13-.33c.67-.12,1.13-.24,1.38-.35v-.14c0-.27-.07-.47-.2-.59-.13-.12-.39-.17-.77-.17-.25,0-.45.05-.59.15-.14.1-.26.28-.34.52ZM136.43,503.68c-.18.06-.47.13-.87.22-.4.08-.65.17-.78.25-.19.13-.28.3-.28.5s.07.37.22.52.34.22.57.22c.26,0,.5-.08.74-.25.17-.13.29-.29.34-.47.04-.12.06-.35.06-.69v-.28Z"/><path class="cls-4" d="M139.24,506.26v-7.43h1.42v7.43h-1.42Z"/></g></g></g><g id="stop-union-hill"><circle class="cls-5" cx="75.06" cy="552.49" r="5.38"/><g class="cls-6"><g class="cls-6"><path class="cls-4" d="M86.18,550.72h1.5v4.02c0,.64.02,1.05.06,1.24.06.3.22.55.46.73.24.18.57.28.99.28s.75-.09.96-.26c.22-.17.35-.39.39-.64.04-.25.07-.67.07-1.26v-4.11h1.5v3.9c0,.89-.04,1.52-.12,1.89-.08.37-.23.68-.45.93-.22.25-.51.46-.87.61s-.84.23-1.43.23c-.71,0-1.25-.08-1.61-.25-.37-.16-.66-.38-.87-.64s-.35-.54-.42-.82c-.1-.43-.15-1.05-.15-1.88v-3.96Z"/><path class="cls-4" d="M98.57,558.15h-1.42v-2.75c0-.58-.03-.96-.09-1.13s-.16-.3-.3-.4c-.14-.09-.3-.14-.49-.14-.25,0-.47.07-.66.2s-.33.31-.4.54-.11.63-.11,1.24v2.44h-1.42v-5.38h1.32v.79c.47-.61,1.06-.91,1.77-.91.31,0,.6.06.86.17.26.11.46.26.59.43.13.18.22.38.28.6.05.22.08.54.08.96v3.34Z"/><path class="cls-4" d="M100.01,552.04v-1.32h1.42v1.32h-1.42ZM100.01,558.15v-5.38h1.42v5.38h-1.42Z"/><path class="cls-4" d="M102.57,555.38c0-.47.12-.93.35-1.37.23-.44.56-.78.99-1.01.43-.23.9-.35,1.43-.35.81,0,1.48.26,2,.79.52.53.78,1.2.78,2s-.26,1.49-.79,2.02-1.19.8-1.98.8c-.49,0-.96-.11-1.41-.33s-.79-.55-1.02-.98c-.23-.43-.35-.96-.35-1.57ZM104.03,555.46c0,.53.13.94.38,1.23.25.28.57.43.94.43s.68-.14.93-.43c.25-.28.38-.7.38-1.24s-.13-.93-.38-1.22c-.25-.28-.56-.43-.93-.43s-.68.14-.94.43c-.25.28-.38.69-.38,1.23Z"/><path class="cls-4" d="M114.13,558.15h-1.42v-2.75c0-.58-.03-.96-.09-1.13s-.16-.3-.3-.4-.3-.14-.49-.14c-.25,0-.47.07-.66.2-.2.13-.33.31-.4.54s-.11.63-.11,1.24v2.44h-1.42v-5.38h1.32v.79c.47-.61,1.06-.91,1.77-.91.31,0,.6.06.86.17.26.11.46.26.59.43.13.18.23.38.28.6.05.22.08.54.08.96v3.34Z"/></g><g class="cls-6"><path class="cls-4" d="M86.2,570.42v-7.43h1.5v2.92h2.94v-2.92h1.5v7.43h-1.5v-3.25h-2.94v3.25h-1.5Z"/><path class="cls-4" d="M93.68,564.3v-1.32h1.42v1.32h-1.42ZM93.68,570.42v-5.38h1.42v5.38h-1.42Z"/><path class="cls-4" d="M96.56,570.42v-7.43h1.42v7.43h-1.42Z"/><path class="cls-4" d="M99.44,570.42v-7.43h1.42v7.43h-1.42Z"/></g></g></g><g id="stop-armour"><circle class="cls-5" cx="75.06" cy="618.53" r="5.38"/><g class="cls-6"><path class="cls-4" d="M92.89,624.19h-1.63l-.65-1.69h-2.97l-.61,1.69h-1.59l2.89-7.43h1.59l2.97,7.43ZM90.13,621.25l-1.02-2.76-1,2.76h2.03Z"/><path class="cls-4" d="M95.04,624.19h-1.42v-5.38h1.32v.77c.23-.36.43-.6.61-.71.18-.11.39-.17.62-.17.32,0,.64.09.94.27l-.44,1.24c-.24-.16-.46-.23-.67-.23s-.37.06-.51.17c-.14.11-.25.31-.33.6-.08.29-.12.89-.12,1.8v1.66Z"/><path class="cls-4" d="M97.61,618.81h1.31v.74c.47-.57,1.03-.86,1.68-.86.34,0,.64.07.9.21.25.14.46.36.62.64.24-.29.49-.5.77-.64.27-.14.57-.21.88-.21.4,0,.73.08,1,.24.27.16.48.4.61.71.1.23.15.6.15,1.12v3.44h-1.42v-3.08c0-.53-.05-.88-.15-1.03-.13-.2-.33-.3-.61-.3-.2,0-.39.06-.56.18-.18.12-.3.3-.38.54-.08.23-.12.61-.12,1.11v2.58h-1.42v-2.95c0-.52-.03-.86-.08-1.01-.05-.15-.13-.26-.24-.34-.11-.08-.25-.11-.43-.11-.22,0-.42.06-.59.18s-.3.29-.38.51-.11.59-.11,1.11v2.62h-1.42v-5.38Z"/><path class="cls-4" d="M106.61,621.43c0-.47.12-.93.35-1.37.23-.44.56-.78.99-1.01.43-.23.9-.35,1.43-.35.81,0,1.48.26,2,.79.52.53.78,1.2.78,2s-.26,1.49-.79,2.02-1.19.8-1.98.8c-.49,0-.96-.11-1.41-.33s-.79-.55-1.02-.98c-.23-.43-.35-.96-.35-1.57ZM108.07,621.5c0,.53.13.94.38,1.23.25.28.57.43.94.43s.68-.14.93-.43c.25-.28.38-.7.38-1.24s-.13-.93-.38-1.22c-.25-.28-.56-.43-.93-.43s-.68.14-.94.43c-.25.28-.38.69-.38,1.23Z"/><path class="cls-4" d="M116.82,624.19v-.81c-.2.29-.45.51-.77.68-.32.17-.66.25-1.01.25s-.69-.08-.97-.24c-.29-.16-.5-.38-.62-.67-.13-.29-.19-.68-.19-1.19v-3.41h1.42v2.47c0,.76.03,1.22.08,1.39.05.17.15.31.29.41s.31.15.53.15c.24,0,.46-.07.65-.2.19-.13.33-.3.4-.5.07-.2.11-.68.11-1.45v-2.27h1.42v5.38h-1.32Z"/><path class="cls-4" d="M120.98,624.19h-1.42v-5.38h1.32v.77c.23-.36.43-.6.61-.71.18-.11.39-.17.62-.17.32,0,.64.09.94.27l-.44,1.24c-.24-.16-.46-.23-.67-.23s-.37.06-.51.17-.25.31-.33.6c-.08.29-.12.89-.12,1.8v1.66Z"/></g></g><g id="stop-westport"><circle class="cls-5" cx="75.06" cy="692.12" r="5.38"/><g class="cls-6"><path class="cls-4" d="M87.24,697.78l-1.77-7.43h1.54l1.12,5.1,1.36-5.1h1.78l1.3,5.19,1.14-5.19h1.51l-1.8,7.43h-1.59l-1.48-5.55-1.47,5.55h-1.63Z"/><path class="cls-4" d="M98.91,696.07l1.42.24c-.18.52-.47.92-.86,1.19-.39.27-.89.41-1.48.41-.94,0-1.63-.31-2.08-.92-.35-.49-.53-1.11-.53-1.85,0-.89.23-1.59.7-2.1.47-.5,1.06-.76,1.77-.76.8,0,1.43.26,1.89.79.46.53.69,1.34.66,2.43h-3.57c.01.42.12.75.34.99.22.24.49.35.82.35.22,0,.41-.06.56-.18.15-.12.27-.32.35-.59ZM98.99,694.63c0-.41-.12-.72-.32-.94s-.45-.32-.74-.32c-.31,0-.57.11-.77.34-.2.23-.3.53-.3.92h2.13Z"/><path class="cls-4" d="M101.06,696.25l1.43-.22c.06.28.18.49.37.63s.45.21.78.21c.37,0,.65-.07.83-.2.12-.09.19-.22.19-.38,0-.11-.03-.2-.1-.27-.07-.07-.23-.13-.48-.19-1.15-.25-1.88-.48-2.18-.69-.43-.29-.64-.69-.64-1.21,0-.47.18-.86.55-1.18.37-.32.94-.48,1.71-.48s1.28.12,1.64.36c.36.24.6.59.74,1.06l-1.34.25c-.06-.21-.17-.37-.33-.48s-.39-.17-.69-.17c-.38,0-.64.05-.81.16-.11.07-.16.17-.16.29,0,.1.05.19.14.26.13.09.57.23,1.33.4.76.17,1.29.38,1.59.63.3.25.45.61.45,1.06,0,.49-.21.92-.62,1.27-.41.35-1.02.53-1.83.53-.73,0-1.31-.15-1.74-.45-.43-.3-.71-.7-.84-1.21Z"/><path class="cls-4" d="M109.8,692.4v1.14h-.97v2.17c0,.44,0,.7.03.77.02.07.06.13.13.18.07.05.15.07.24.07.13,0,.32-.04.57-.14l.12,1.11c-.33.14-.71.21-1.12.21-.26,0-.49-.04-.69-.13s-.36-.2-.45-.33-.16-.32-.2-.55c-.03-.17-.05-.5-.05-1v-2.35h-.65v-1.14h.65v-1.07l1.43-.83v1.9h.97Z"/><path class="cls-4" d="M110.75,692.4h1.33v.79c.17-.27.41-.49.7-.66s.62-.25.98-.25c.62,0,1.16.25,1.59.73.44.49.65,1.17.65,2.05s-.22,1.6-.66,2.1c-.44.5-.97.75-1.6.75-.3,0-.57-.06-.81-.18-.24-.12-.5-.32-.76-.61v2.71h-1.42v-7.43ZM112.16,695c0,.61.12,1.05.36,1.34.24.29.53.43.88.43s.61-.13.83-.4c.22-.26.33-.7.33-1.3,0-.56-.11-.98-.34-1.26-.23-.27-.51-.41-.84-.41s-.64.13-.87.4c-.23.27-.34.67-.34,1.19Z"/><path class="cls-4" d="M116.8,695.02c0-.47.12-.93.35-1.37.23-.44.56-.78.99-1.01.43-.23.9-.35,1.43-.35.81,0,1.48.26,2,.79.52.53.78,1.2.78,2s-.26,1.49-.79,2.02-1.19.8-1.98.8c-.49,0-.96-.11-1.41-.33s-.79-.55-1.02-.98c-.23-.43-.35-.96-.35-1.57ZM118.26,695.09c0,.53.13.94.38,1.23.25.28.57.43.94.43s.68-.14.93-.43c.25-.28.38-.7.38-1.24s-.13-.93-.38-1.22c-.25-.28-.56-.43-.93-.43s-.68.14-.94.43c-.25.28-.38.69-.38,1.23Z"/><path class="cls-4" d="M124.83,697.78h-1.42v-5.38h1.32v.77c.23-.36.43-.6.61-.71.18-.11.39-.17.62-.17.32,0,.64.09.94.27l-.44,1.24c-.24-.16-.46-.23-.67-.23s-.37.06-.51.17-.25.31-.33.6c-.08.29-.12.89-.12,1.8v1.66Z"/><path class="cls-4" d="M129.97,692.4v1.14h-.97v2.17c0,.44,0,.7.03.77.02.07.06.13.13.18.07.05.15.07.24.07.13,0,.32-.04.57-.14l.12,1.11c-.33.14-.71.21-1.12.21-.26,0-.49-.04-.69-.13s-.36-.2-.45-.33-.16-.32-.2-.55c-.03-.17-.05-.5-.05-1v-2.35h-.65v-1.14h.65v-1.07l1.43-.83v1.9h.97Z"/></g></g><g id="stop-southmoreland"><circle class="cls-5" cx="75.06" cy="749.67" r="5.38"/><g class="cls-6"><path class="cls-4" d="M85.81,752.92l1.46-.14c.09.49.27.85.53,1.08s.63.34,1.09.34c.48,0,.85-.1,1.09-.31.25-.21.37-.44.37-.72,0-.17-.05-.32-.15-.45-.1-.12-.28-.23-.54-.32-.18-.06-.58-.17-1.2-.32-.8-.2-1.37-.44-1.69-.74-.46-.41-.68-.91-.68-1.5,0-.38.11-.73.32-1.06.21-.33.52-.58.93-.75.4-.17.89-.26,1.46-.26.93,0,1.63.21,2.11.61.47.41.72.95.74,1.64l-1.5.07c-.06-.38-.2-.66-.41-.82-.21-.17-.53-.25-.95-.25s-.78.09-1.02.27c-.16.12-.24.27-.24.46,0,.18.07.33.22.45.19.16.65.32,1.38.5.73.17,1.27.35,1.62.53.35.18.62.44.82.76.2.32.3.71.3,1.18,0,.43-.12.82-.35,1.2-.24.37-.57.65-1,.83-.43.18-.97.27-1.62.27-.94,0-1.66-.22-2.16-.65-.5-.43-.8-1.07-.9-1.9Z"/><path class="cls-4" d="M92.77,752.57c0-.47.12-.93.35-1.37.23-.44.56-.78.99-1.01.43-.23.9-.35,1.43-.35.81,0,1.48.26,2,.79.52.53.78,1.2.78,2s-.26,1.49-.79,2.02-1.19.8-1.98.8c-.49,0-.96-.11-1.41-.33s-.79-.55-1.02-.98-.35-.96-.35-1.57ZM94.23,752.64c0,.53.13.94.38,1.23.25.28.57.43.94.43s.68-.14.94-.43c.25-.28.38-.7.38-1.24s-.13-.93-.38-1.22c-.25-.28-.56-.43-.94-.43s-.68.14-.94.43c-.25.28-.38.69-.38,1.23Z"/><path class="cls-4" d="M102.98,755.33v-.81c-.2.29-.45.51-.77.68-.32.17-.66.25-1.01.25s-.69-.08-.97-.24c-.29-.16-.5-.38-.62-.67-.13-.29-.19-.68-.19-1.19v-3.41h1.42v2.47c0,.76.03,1.22.08,1.39.05.17.15.31.29.41s.31.15.53.15c.24,0,.46-.07.65-.2.19-.13.33-.3.4-.5.07-.2.11-.68.11-1.45v-2.27h1.42v5.38h-1.32Z"/><path class="cls-4" d="M108.25,749.95v1.14h-.97v2.17c0,.44,0,.7.03.77.02.07.06.13.13.18.07.05.15.07.24.07.13,0,.32-.04.57-.14l.12,1.11c-.33.14-.71.21-1.12.21-.26,0-.49-.04-.69-.13s-.36-.2-.45-.33-.16-.32-.2-.55c-.03-.17-.05-.5-.05-1v-2.35h-.65v-1.14h.65v-1.07l1.43-.83v1.9h.97Z"/><path class="cls-4" d="M110.66,747.91v2.73c.46-.54,1.01-.81,1.65-.81.33,0,.62.06.89.18.26.12.46.28.6.47s.22.4.27.63c.05.23.07.59.07,1.07v3.16h-1.42v-2.84c0-.56-.03-.92-.08-1.07-.05-.15-.15-.27-.29-.36s-.31-.13-.51-.13c-.24,0-.45.06-.63.17-.19.11-.32.29-.41.52s-.13.57-.13,1.03v2.7h-1.42v-7.43h1.42Z"/><path class="cls-4" d="M115.47,749.95h1.31v.74c.47-.57,1.03-.86,1.68-.86.34,0,.64.07.9.21.25.14.46.36.62.64.24-.29.49-.5.77-.64.27-.14.57-.21.88-.21.4,0,.73.08,1,.24.27.16.48.4.61.71.1.23.15.6.15,1.12v3.44h-1.42v-3.08c0-.53-.05-.88-.15-1.03-.13-.2-.33-.3-.61-.3-.2,0-.39.06-.56.18-.18.12-.3.3-.38.54-.08.23-.12.61-.12,1.11v2.58h-1.42v-2.95c0-.52-.03-.86-.08-1.01-.05-.15-.13-.26-.24-.34-.11-.08-.25-.11-.43-.11-.22,0-.42.06-.59.18s-.3.29-.38.51-.11.59-.11,1.11v2.62h-1.42v-5.38Z"/><path class="cls-4" d="M124.48,752.57c0-.47.12-.93.35-1.37.23-.44.56-.78.99-1.01.43-.23.9-.35,1.43-.35.81,0,1.48.26,2,.79.52.53.78,1.2.78,2s-.26,1.49-.79,2.02-1.19.8-1.98.8c-.49,0-.96-.11-1.41-.33s-.79-.55-1.02-.98c-.23-.43-.35-.96-.35-1.57ZM125.93,752.64c0,.53.13.94.38,1.23.25.28.57.43.94.43s.68-.14.93-.43c.25-.28.38-.7.38-1.24s-.13-.93-.38-1.22c-.25-.28-.56-.43-.93-.43s-.68.14-.94.43c-.25.28-.38.69-.38,1.23Z"/><path class="cls-4" d="M132.51,755.33h-1.42v-5.38h1.32v.77c.23-.36.43-.6.61-.71.18-.11.39-.17.62-.17.32,0,.64.09.94.27l-.44,1.24c-.24-.16-.46-.23-.67-.23s-.37.06-.51.17-.25.31-.33.6c-.08.29-.12.89-.12,1.8v1.66Z"/><path class="cls-4" d="M138.3,753.62l1.42.24c-.18.52-.47.92-.86,1.19-.39.27-.89.41-1.48.41-.94,0-1.63-.31-2.08-.92-.35-.49-.53-1.11-.53-1.85,0-.89.23-1.59.7-2.1.47-.5,1.06-.76,1.77-.76.8,0,1.43.26,1.9.79.46.53.68,1.34.66,2.43h-3.57c0,.42.12.75.34.99.22.24.49.35.82.35.22,0,.41-.06.56-.18.15-.12.27-.32.34-.59ZM138.38,752.18c0-.41-.12-.72-.32-.94-.2-.21-.45-.32-.74-.32-.31,0-.57.11-.77.34-.2.23-.3.53-.3.92h2.13Z"/><path class="cls-4" d="M140.95,755.33v-7.43h1.42v7.43h-1.42Z"/><path class="cls-4" d="M144.9,751.59l-1.29-.23c.15-.52.4-.91.75-1.16s.88-.38,1.58-.38c.64,0,1.11.08,1.42.23s.53.34.66.57.19.66.19,1.27l-.02,1.66c0,.47.02.82.07,1.05.05.22.13.46.26.72h-1.41c-.04-.09-.08-.23-.14-.42-.02-.08-.04-.14-.05-.17-.24.24-.5.41-.78.53-.28.12-.57.18-.89.18-.55,0-.99-.15-1.31-.45s-.48-.68-.48-1.14c0-.3.07-.58.22-.81s.35-.42.61-.55.64-.24,1.13-.33c.67-.12,1.13-.24,1.38-.35v-.14c0-.27-.07-.47-.2-.59-.13-.12-.39-.17-.77-.17-.25,0-.45.05-.59.15-.14.1-.26.28-.34.52ZM146.81,752.75c-.18.06-.47.13-.87.22-.4.08-.65.17-.78.25-.19.13-.28.3-.28.5s.07.37.22.52.34.22.57.22c.26,0,.5-.08.74-.25.17-.13.29-.29.34-.47.04-.12.06-.35.06-.69v-.28Z"/><path class="cls-4" d="M154.5,755.33h-1.42v-2.75c0-.58-.03-.96-.09-1.13s-.16-.3-.3-.4-.3-.14-.49-.14c-.25,0-.47.07-.66.2-.2.13-.33.31-.4.54s-.11.63-.11,1.24v2.44h-1.42v-5.38h1.32v.79c.47-.61,1.06-.91,1.77-.91.31,0,.6.06.86.17.26.11.46.26.59.43.13.18.23.38.28.6.05.22.08.54.08.96v3.34Z"/><path class="cls-4" d="M160.88,755.33h-1.32v-.79c-.22.31-.48.54-.78.69s-.6.23-.9.23c-.62,0-1.15-.25-1.59-.75s-.66-1.19-.66-2.08.21-1.61.64-2.08.97-.71,1.63-.71c.6,0,1.12.25,1.56.75v-2.68h1.42v7.43ZM157.08,752.53c0,.57.08.99.24,1.25.23.37.55.56.96.56.33,0,.61-.14.84-.42.23-.28.34-.69.34-1.25,0-.62-.11-1.06-.33-1.33-.22-.27-.51-.41-.86-.41s-.62.13-.85.4c-.23.27-.34.67-.34,1.2Z"/></g></g><g id="stop-art-museums"><circle class="cls-5" cx="75.06" cy="784.58" r="5.38"/><g class="cls-6"><path class="cls-4" d="M92.89,790.24h-1.63l-.65-1.69h-2.97l-.61,1.69h-1.59l2.89-7.43h1.59l2.97,7.43ZM90.13,787.3l-1.02-2.76-1,2.76h2.03Z"/><path class="cls-4" d="M95.04,790.24h-1.42v-5.38h1.32v.77c.23-.36.43-.6.61-.71.18-.11.39-.17.62-.17.32,0,.64.09.94.27l-.44,1.24c-.24-.16-.46-.23-.67-.23s-.37.06-.51.17c-.14.11-.25.31-.33.6-.08.29-.12.89-.12,1.8v1.66Z"/><path class="cls-4" d="M100.18,784.86v1.14h-.97v2.17c0,.44,0,.7.03.77.02.07.06.13.13.18.07.05.15.07.24.07.13,0,.32-.04.57-.14l.12,1.11c-.33.14-.71.21-1.12.21-.26,0-.49-.04-.69-.13s-.36-.2-.45-.33-.16-.32-.2-.55c-.03-.17-.05-.5-.05-1v-2.35h-.65v-1.14h.65v-1.07l1.43-.83v1.9h.97Z"/><path class="cls-4" d="M104.04,790.24v-7.43h2.25l1.35,5.07,1.33-5.07h2.25v7.43h-1.39v-5.85l-1.47,5.85h-1.44l-1.47-5.85v5.85h-1.39Z"/><path class="cls-4" d="M116.24,790.24v-.81c-.2.29-.45.51-.77.68-.32.17-.66.25-1.01.25s-.69-.08-.97-.24c-.29-.16-.5-.38-.62-.67-.13-.29-.19-.68-.19-1.19v-3.41h1.42v2.47c0,.76.03,1.22.08,1.39.05.17.15.31.29.41s.31.15.53.15c.24,0,.46-.07.65-.2.19-.13.33-.3.4-.5.07-.2.11-.68.11-1.45v-2.27h1.42v5.38h-1.32Z"/><path class="cls-4" d="M118.54,788.71l1.43-.22c.06.28.18.49.37.63s.45.21.78.21c.37,0,.65-.07.83-.2.12-.09.19-.22.19-.38,0-.11-.03-.2-.1-.27-.07-.07-.23-.13-.48-.19-1.15-.25-1.88-.48-2.18-.69-.43-.29-.64-.69-.64-1.21,0-.47.18-.86.55-1.18.37-.32.94-.48,1.71-.48s1.28.12,1.64.36c.36.24.6.59.74,1.06l-1.34.25c-.06-.21-.17-.37-.33-.48s-.39-.17-.69-.17c-.38,0-.64.05-.81.16-.11.07-.16.17-.16.29,0,.1.05.19.14.26.13.09.57.23,1.33.4.76.17,1.29.38,1.59.63.3.25.45.61.45,1.06,0,.49-.21.92-.62,1.27-.41.35-1.02.53-1.83.53-.73,0-1.31-.15-1.74-.45-.43-.3-.71-.7-.84-1.21Z"/><path class="cls-4" d="M127.93,788.53l1.42.24c-.18.52-.47.92-.86,1.19-.39.27-.89.41-1.48.41-.94,0-1.63-.31-2.08-.92-.35-.49-.53-1.11-.53-1.85,0-.89.23-1.59.7-2.1.47-.5,1.06-.76,1.77-.76.8,0,1.43.26,1.9.79.46.53.68,1.34.66,2.43h-3.57c0,.42.12.75.34.99.22.24.49.35.82.35.22,0,.41-.06.56-.18.15-.12.27-.32.34-.59ZM128.01,787.09c0-.41-.12-.72-.32-.94-.2-.21-.45-.32-.74-.32-.31,0-.57.11-.77.34-.2.23-.3.53-.3.92h2.13Z"/><path class="cls-4" d="M134.12,790.24v-.81c-.2.29-.45.51-.77.68-.32.17-.66.25-1.01.25s-.69-.08-.97-.24c-.29-.16-.5-.38-.62-.67-.13-.29-.19-.68-.19-1.19v-3.41h1.42v2.47c0,.76.03,1.22.08,1.39.05.17.15.31.29.41s.31.15.53.15c.24,0,.46-.07.65-.2.19-.13.33-.3.4-.5.07-.2.11-.68.11-1.45v-2.27h1.42v5.38h-1.32Z"/><path class="cls-4" d="M136.81,784.86h1.31v.74c.47-.57,1.03-.86,1.68-.86.34,0,.64.07.9.21.25.14.46.36.62.64.24-.29.49-.5.77-.64.27-.14.57-.21.88-.21.4,0,.73.08,1,.24.27.16.48.4.61.71.1.23.15.6.15,1.12v3.44h-1.42v-3.08c0-.53-.05-.88-.15-1.03-.13-.2-.33-.3-.61-.3-.2,0-.39.06-.56.18-.18.12-.3.3-.38.54-.08.23-.12.61-.12,1.11v2.58h-1.42v-2.95c0-.52-.03-.86-.08-1.01-.05-.15-.13-.26-.24-.34-.11-.08-.25-.11-.43-.11-.22,0-.42.06-.59.18s-.3.29-.38.51-.11.59-.11,1.11v2.62h-1.42v-5.38Z"/><path class="cls-4" d="M145.65,788.71l1.43-.22c.06.28.18.49.37.63s.45.21.78.21c.37,0,.65-.07.83-.2.12-.09.19-.22.19-.38,0-.11-.03-.2-.1-.27-.07-.07-.23-.13-.48-.19-1.15-.25-1.88-.48-2.18-.69-.43-.29-.64-.69-.64-1.21,0-.47.18-.86.55-1.18.37-.32.94-.48,1.71-.48s1.28.12,1.64.36c.36.24.6.59.74,1.06l-1.34.25c-.06-.21-.17-.37-.33-.48s-.39-.17-.69-.17c-.38,0-.64.05-.81.16-.11.07-.16.17-.16.29,0,.1.05.19.14.26.13.09.57.23,1.33.4.76.17,1.29.38,1.59.63.3.25.45.61.45,1.06,0,.49-.21.92-.62,1.27-.41.35-1.02.53-1.83.53-.73,0-1.31-.15-1.74-.45-.43-.3-.71-.7-.84-1.21Z"/></g></g><g id="stop-plaza"><circle class="cls-5" cx="80.72" cy="822.32" r="5.38"/><g class="cls-6"><path class="cls-4" d="M91.85,827.98v-7.43h2.41c.91,0,1.51.04,1.78.11.43.11.78.35,1.07.73.29.37.43.86.43,1.45,0,.46-.08.84-.25,1.15-.17.31-.38.55-.63.73-.25.18-.51.29-.78.35-.36.07-.88.11-1.56.11h-.98v2.8h-1.5ZM93.35,821.81v2.11h.82c.59,0,.99-.04,1.19-.12.2-.08.36-.2.47-.37.11-.17.17-.36.17-.58,0-.27-.08-.49-.24-.67s-.36-.29-.6-.33c-.18-.03-.54-.05-1.08-.05h-.72Z"/><path class="cls-4" d="M98.76,827.98v-7.43h1.42v7.43h-1.42Z"/><path class="cls-4" d="M102.71,824.24l-1.29-.23c.15-.52.4-.91.75-1.16s.88-.38,1.58-.38c.64,0,1.11.08,1.42.23s.53.34.66.57.19.66.19,1.27l-.02,1.66c0,.47.02.82.07,1.05.05.22.13.46.26.72h-1.41c-.04-.09-.08-.23-.14-.42-.02-.08-.04-.14-.05-.17-.24.24-.5.41-.78.53-.28.12-.57.18-.89.18-.55,0-.99-.15-1.31-.45s-.48-.68-.48-1.14c0-.3.07-.58.22-.81s.35-.42.61-.55.64-.24,1.13-.33c.67-.12,1.13-.24,1.38-.35v-.14c0-.27-.07-.47-.2-.59-.13-.12-.39-.17-.77-.17-.25,0-.45.05-.59.15-.14.1-.26.28-.34.52ZM104.62,825.4c-.18.06-.47.13-.87.22-.4.08-.65.17-.78.25-.19.13-.28.3-.28.5s.07.37.22.52.34.22.57.22c.26,0,.5-.08.74-.25.17-.13.29-.29.34-.47.04-.12.06-.35.06-.69v-.28Z"/><path class="cls-4" d="M106.85,827.98v-1.11l2.02-2.32c.33-.38.58-.65.73-.81-.17.01-.38.02-.65.02h-1.9s0-1.17,0-1.17h4.45v1.01l-2.06,2.37-.72.79c.4-.02.64-.04.73-.04h2.21v1.25h-4.8Z"/><path class="cls-4" d="M113.67,824.24l-1.29-.23c.15-.52.4-.91.75-1.16s.88-.38,1.58-.38c.64,0,1.11.08,1.42.23s.53.34.66.57.19.66.19,1.27l-.02,1.66c0,.47.02.82.07,1.05.05.22.13.46.26.72h-1.41c-.04-.09-.08-.23-.14-.42-.02-.08-.04-.14-.05-.17-.24.24-.5.41-.78.53-.28.12-.57.18-.89.18-.55,0-.99-.15-1.31-.45s-.48-.68-.48-1.14c0-.3.07-.58.22-.81s.35-.42.61-.55.64-.24,1.13-.33c.67-.12,1.13-.24,1.38-.35v-.14c0-.27-.07-.47-.2-.59-.13-.12-.39-.17-.77-.17-.25,0-.45.05-.59.15-.14.1-.26.28-.34.52ZM115.58,825.4c-.18.06-.47.13-.87.22-.4.08-.65.17-.78.25-.19.13-.28.3-.28.5s.07.37.22.52.34.22.57.22c.26,0,.5-.08.74-.25.17-.13.29-.29.34-.47.04-.12.06-.35.06-.69v-.28Z"/></g></g><g id="stop-umkc"><circle class="cls-5" cx="109.02" cy="882.28" r="5.38"/><g class="cls-6"><path class="cls-4" d="M120.15,880.51h1.5v4.02c0,.64.02,1.05.06,1.24.06.3.22.55.46.73.24.18.57.28.99.28s.75-.09.96-.26c.22-.17.35-.39.39-.64.04-.25.07-.67.07-1.26v-4.11h1.5v3.9c0,.89-.04,1.52-.12,1.89s-.23.68-.45.93c-.22.25-.51.46-.87.61-.37.15-.84.23-1.43.23-.71,0-1.25-.08-1.61-.25-.37-.16-.66-.38-.87-.64s-.35-.54-.42-.82c-.1-.43-.15-1.05-.15-1.88v-3.96Z"/><path class="cls-4" d="M127.63,887.94v-7.43h2.25l1.35,5.07,1.33-5.07h2.25v7.43h-1.39v-5.85l-1.47,5.85h-1.44l-1.47-5.85v5.85h-1.39Z"/><path class="cls-4" d="M136.32,887.94v-7.43h1.5v3.3l3.03-3.3h2.02l-2.8,2.89,2.95,4.54h-1.94l-2.04-3.49-1.22,1.24v2.25h-1.5Z"/><path class="cls-4" d="M148.54,885.21l1.46.46c-.22.81-.59,1.41-1.11,1.81s-1.18.59-1.97.59c-.99,0-1.8-.34-2.43-1.01-.64-.67-.95-1.6-.95-2.76,0-1.24.32-2.2.96-2.88.64-.68,1.48-1.03,2.52-1.03.91,0,1.65.27,2.21.81.34.32.59.77.76,1.37l-1.48.35c-.09-.38-.27-.69-.55-.91-.28-.22-.62-.33-1.02-.33-.55,0-1,.2-1.34.59s-.51,1.04-.51,1.92c0,.94.17,1.61.51,2.01.34.4.78.6,1.32.6.4,0,.74-.13,1.03-.38.29-.25.49-.65.62-1.2Z"/></g></g></g><g class="cls-6"><path class="cls-4" d="M106.18,375.34v-4.21h-1.5v-.86h4.02v.86h-1.5v4.21h-1.02Z"/><path class="cls-4" d="M110.32,370.28v1.86c.31-.37.69-.55,1.12-.55.22,0,.42.04.6.12.18.08.32.19.41.32s.15.27.19.43c.03.16.05.4.05.73v2.15h-.97v-1.94c0-.38-.02-.63-.06-.73s-.1-.19-.2-.25c-.09-.06-.21-.09-.35-.09-.16,0-.3.04-.43.12-.13.08-.22.2-.28.35s-.09.39-.09.7v1.84h-.97v-5.06h.97Z"/><path class="cls-4" d="M115.79,374.17l.97.16c-.12.35-.32.62-.59.81-.27.19-.6.28-1.01.28-.64,0-1.11-.21-1.42-.62-.24-.33-.36-.75-.36-1.26,0-.61.16-1.08.48-1.43.32-.34.72-.52,1.21-.52.54,0,.98.18,1.29.54.32.36.47.91.45,1.66h-2.43c0,.29.08.51.23.67.15.16.34.24.56.24.15,0,.28-.04.38-.12s.18-.22.23-.4ZM115.85,373.19c0-.28-.08-.49-.22-.64s-.31-.22-.5-.22c-.21,0-.39.08-.53.23-.14.15-.21.36-.2.63h1.45Z"/><path class="cls-4" d="M123.87,375.34h-1.11l-.44-1.15h-2.02l-.42,1.15h-1.08l1.97-5.06h1.08l2.03,5.06ZM121.99,373.34l-.7-1.88-.68,1.88h1.38Z"/><path class="cls-4" d="M124.37,375.34v-5.06h.97v1.82c.3-.34.65-.51,1.06-.51.45,0,.82.16,1.11.48.29.32.44.79.44,1.39s-.15,1.11-.45,1.45-.66.51-1.09.51c-.21,0-.42-.05-.62-.16-.2-.1-.38-.26-.53-.46v.54h-.9ZM125.33,373.43c0,.38.06.66.18.84.17.26.39.39.67.39.21,0,.4-.09.55-.27.15-.18.23-.47.23-.87,0-.42-.08-.72-.23-.91-.15-.19-.35-.28-.58-.28s-.43.09-.58.27c-.15.18-.23.46-.23.82Z"/><path class="cls-4" d="M128.69,375.34v-5.06h.97v1.82c.3-.34.65-.51,1.06-.51.45,0,.82.16,1.11.48.29.32.44.79.44,1.39s-.15,1.11-.45,1.45-.66.51-1.09.51c-.21,0-.42-.05-.62-.16-.2-.1-.38-.26-.53-.46v.54h-.9ZM129.65,373.43c0,.38.06.66.18.84.17.26.39.39.67.39.21,0,.4-.09.55-.27.15-.18.23-.47.23-.87,0-.42-.08-.72-.23-.91-.15-.19-.35-.28-.58-.28s-.43.09-.58.27c-.15.18-.23.46-.23.82Z"/><path class="cls-4" d="M132.82,373.46c0-.32.08-.63.24-.94.16-.3.38-.53.67-.69.29-.16.62-.24.98-.24.55,0,1.01.18,1.36.54.35.36.53.82.53,1.37s-.18,1.01-.54,1.38c-.36.36-.81.55-1.35.55-.34,0-.66-.08-.96-.23-.3-.15-.54-.37-.7-.67s-.24-.65-.24-1.07ZM133.82,373.51c0,.36.09.64.26.84.17.19.39.29.64.29s.47-.1.64-.29c.17-.19.26-.47.26-.84s-.09-.64-.26-.83c-.17-.19-.38-.29-.64-.29s-.47.1-.64.29c-.17.19-.26.47-.26.84Z"/><path class="cls-4" d="M139.05,371.67v.77h-.66v1.48c0,.3,0,.47.02.52.01.05.04.09.09.12s.1.05.16.05c.09,0,.22-.03.39-.09l.08.75c-.23.1-.48.15-.77.15-.17,0-.33-.03-.47-.09-.14-.06-.24-.13-.31-.23s-.11-.22-.14-.38c-.02-.11-.03-.34-.03-.68v-1.6h-.45v-.77h.45v-.73l.97-.57v1.29h.66Z"/><path class="cls-4" d="M141.4,371.67v.77h-.66v1.48c0,.3,0,.47.02.52.01.05.04.09.09.12s.1.05.16.05c.09,0,.22-.03.39-.09l.08.75c-.23.1-.48.15-.77.15-.17,0-.33-.03-.47-.09-.14-.06-.24-.13-.31-.23s-.11-.22-.14-.38c-.02-.11-.03-.34-.03-.68v-1.6h-.45v-.77h.45v-.73l.97-.57v1.29h.66Z"/></g><polygon class="cls-2" points="94.51 363.79 96.5 369.92 102.95 369.92 97.74 373.71 99.73 379.85 94.51 376.06 89.29 379.85 91.29 373.71 86.07 369.92 92.52 369.92 94.51 363.79"/><g class="cls-6"><path class="cls-4" d="M105.04,391.3v-4.98h1v1.96h1.97v-1.96h1v4.98h-1v-2.18h-1.97v2.18h-1Z"/><path class="cls-4" d="M109.83,389.45c0-.32.08-.62.23-.92.16-.3.38-.52.66-.68.29-.16.61-.23.96-.23.55,0,.99.18,1.34.53.35.35.52.8.52,1.34s-.18,1-.53,1.36-.79.54-1.33.54c-.33,0-.65-.07-.95-.22s-.53-.37-.68-.66-.23-.64-.23-1.05ZM110.8,389.5c0,.36.08.63.25.82s.38.29.63.29.46-.1.63-.29.25-.47.25-.83-.08-.62-.25-.81c-.17-.19-.38-.29-.63-.29s-.46.1-.63.29c-.17.19-.25.46-.25.82Z"/><path class="cls-4" d="M115.95,387.69v.76h-.65v1.45c0,.29,0,.47.02.51.01.05.04.09.08.12.04.03.1.05.16.05.09,0,.22-.03.38-.09l.08.74c-.22.1-.47.14-.75.14-.17,0-.33-.03-.46-.09-.14-.06-.24-.13-.3-.22-.06-.09-.11-.22-.13-.37-.02-.11-.03-.33-.03-.67v-1.57h-.44v-.76h.44v-.72l.96-.56v1.27h.65Z"/><path class="cls-4" d="M118.7,390.15l.95.16c-.12.35-.32.61-.58.8s-.59.27-.99.27c-.63,0-1.09-.21-1.39-.61-.24-.33-.36-.74-.36-1.24,0-.6.16-1.06.47-1.4.31-.34.71-.51,1.18-.51.54,0,.96.18,1.27.53.31.35.46.9.44,1.63h-2.39c0,.28.08.5.23.66.15.16.33.24.55.24.15,0,.28-.04.38-.12.1-.08.18-.21.23-.39ZM118.75,389.19c0-.28-.08-.49-.21-.63-.14-.14-.3-.22-.5-.22-.21,0-.38.08-.52.23-.14.15-.2.36-.2.62h1.43Z"/><path class="cls-4" d="M120.47,391.3v-4.98h.95v4.98h-.95Z"/><path class="cls-4" d="M124.31,391.3v-4.98h1v4.98h-1Z"/><path class="cls-4" d="M129.55,391.3h-.95v-1.84c0-.39-.02-.64-.06-.76-.04-.11-.11-.2-.2-.27-.09-.06-.2-.1-.33-.1-.17,0-.31.05-.44.14-.13.09-.22.21-.27.36-.05.15-.07.43-.07.83v1.63h-.95v-3.6h.89v.53c.31-.41.71-.61,1.19-.61.21,0,.4.04.58.11.17.08.31.17.4.29.09.12.15.25.19.4s.05.36.05.64v2.24Z"/><path class="cls-4" d="M133.82,391.3h-.89v-.53c-.15.21-.32.36-.52.46-.2.1-.4.15-.61.15-.41,0-.77-.17-1.06-.5-.3-.33-.44-.8-.44-1.4s.14-1.08.43-1.39c.29-.32.65-.48,1.09-.48.4,0,.75.17,1.05.5v-1.79h.95v4.98ZM131.28,389.42c0,.38.05.66.16.83.15.25.37.37.64.37.22,0,.41-.09.56-.28.15-.19.23-.47.23-.84,0-.41-.07-.71-.22-.89s-.34-.27-.57-.27-.42.09-.57.27c-.15.18-.23.45-.23.81Z"/><path class="cls-4" d="M134.76,387.21v-.88h.95v.88h-.95ZM134.76,391.3v-3.6h.95v3.6h-.95Z"/><path class="cls-4" d="M136.61,391.54l1.09.13c.02.13.06.21.13.26.09.07.23.1.43.1.25,0,.44-.04.56-.11.08-.05.15-.13.19-.24.03-.08.04-.23.04-.44v-.53c-.29.39-.64.58-1.08.58-.48,0-.87-.2-1.15-.61-.22-.32-.33-.73-.33-1.21,0-.6.15-1.07.44-1.38.29-.32.65-.48,1.08-.48s.81.2,1.1.59v-.51h.89v3.23c0,.43-.04.74-.11.95s-.17.38-.29.5c-.13.12-.3.21-.51.28-.21.07-.48.1-.8.1-.61,0-1.04-.1-1.3-.31s-.38-.47-.38-.8c0-.03,0-.07,0-.12ZM137.46,389.42c0,.38.07.66.22.84.15.18.33.27.55.27.23,0,.43-.09.59-.27.16-.18.24-.45.24-.81s-.08-.65-.23-.83c-.15-.18-.35-.27-.58-.27s-.42.09-.56.27c-.15.18-.22.45-.22.81Z"/><path class="cls-4" d="M140.72,389.45c0-.32.08-.62.23-.92.16-.3.38-.52.66-.68.29-.16.61-.23.96-.23.55,0,.99.18,1.34.53.35.35.52.8.52,1.34s-.18,1-.53,1.36-.79.54-1.33.54c-.33,0-.65-.07-.95-.22s-.53-.37-.68-.66-.23-.64-.23-1.05ZM141.7,389.5c0,.36.08.63.25.82s.38.29.63.29.46-.1.63-.29.25-.47.25-.83-.08-.62-.25-.81c-.17-.19-.38-.29-.63-.29s-.46.1-.63.29c-.17.19-.25.46-.25.82Z"/></g><polygon class="cls-3" points="94.68 379.94 96.64 385.97 102.98 385.97 97.85 389.7 99.81 395.73 94.68 392 89.55 395.73 91.51 389.7 86.38 385.97 92.72 385.97 94.68 379.94"/></svg>